<?xml version="1.0" encoding="utf-8"?>
<!-- Generator: Adobe Illustrator 28.2.0, SVG Export Plug-In . SVG Version: 6.00 Build 0)  -->
<svg version="1.1" id="Layer_1" xmlns="http://www.w3.org/2000/svg" xmlns:xlink="http://www.w3.org/1999/xlink" x="0px" y="0px"
	 viewBox="0 0 1024.21 1536.21" enable-background="new 0 0 1024.21 1536.21" xml:space="preserve">
<g>
	<path fill="#FEFEFE" d="M0.11,1536.11c0-510.5,0.01-1021-0.11-1531.5C0,0.76,0.76,0,4.61,0c338.33,0.11,676.67,0.11,1015,0
		c3.85,0,4.61,0.76,4.61,4.61c-0.11,509-0.11,1018,0,1527c0,3.85-0.76,4.61-4.61,4.61C679.77,1536.1,339.94,1536.11,0.11,1536.11z
		 M872.82,665.69c0.43-0.86,0.85-1.73,1.28-2.59c0.95-19.95-4.02-38.82-10.41-57.43c-16.57-3.1-32.69-10.16-47.89-6.39
		c-6.91,3.24-11.76,5.51-16.61,7.79c-0.67-1-1.91-1.99-1.91-3c-0.11-20.63-0.08-41.26-0.08-61.56
		c13.07-13.09,3.09-37.92-17.67-44.23c5.52-7.68,4.71-15.33-1.67-21.61c-4.94-4.86-11.46-5.17-17.46-1.39
		c-10.5,6.62-6.47,15.4,0.64,31.27c-113.99-16.86-223.31-33.03-332.6-49.19c-1.24-10.72-8.93-12.62-17.58-13.88
		c5.17-7.66,6.73-15.45-0.23-22.2c-4.66-4.51-10.69-6.03-16.86-2.1c-10.53,6.71-6.28,15.43-3,23.39
		c-5.56,6.13-18.05,4.48-16.53,15.49c-1.27,3.87-9.72,0.91-4.96,7.88c0.22,4.73,0.44,9.46,0.66,14.19
		c-0.63,1.59-1.27,3.18-2.09,5.24c1.98,1.19,4.13,2.49,6.19,3.73c0,48.55,0,96.82,0,146.5c-19.86-4.26-39.34-8.44-58.82-12.62
		c-0.32-0.34-0.64-0.68-0.96-1.02c-7.7-4.44,0.49-13.01-4.38-18.35c0.36-0.98,0.84-2.29,1.32-3.6c8.36-3.68,16.54-7.87,25.13-10.9
		c11.13-3.93,9.46-10.51,6.06-16.56c-2.05-8.58-3.65-15.32-5.26-22.05c0.15-0.04,0.29-0.07,0.44-0.11c-0.59-3.1-1.18-6.21-0.48-2.54
		c-2.28-10.95-3.15-15.17-4.04-19.44c-1.82-0.49-3.38-0.91-4.93-1.33c-11.34-1.81-22.68-3.61-34.44-5.49
		c-8.45,3.34-17.52,6.92-26.59,10.51c-0.36,0.55-0.71,1.09-1.07,1.64c-0.51,0.27-1.03,0.54-1.79,0.94c0.29,0.5,0.54,0.95,0.79,1.39
		c-3,18.53-6,37.06-9.03,55.79c12.46,1.89,22.73,3.45,33,5.01c0.62,1.36,1.24,2.73,1.96,4.32c-1.06,1.82-2.23,3.81-3.58,6.1
		c1.26,2.29,2.59,4.71,3.91,7.11c-0.63,1.97-1.22,3.79-1.08,3.36c-24.46,10.88-47.42,20.82-70.12,31.31
		c-13.94,6.44-7.38,16.77-4.15,32.72c0,9.51,0,25.48,0,41.35c-4.08,2.21-7.97,4.33-11.86,6.44l0,0.01
		c-13.96,7.34-29.24,12.84-39.51,27.1c-17.66,2.14-19.12,12.41-11.32,27.4c-5.49,4.81-16.68,4.5-15.33,14.56
		c-13.7,10.22-9.42,21.07-3.41,38.33c0,9.01,0,24.28,0,37.83c-2.97,3.72-6.59,6.18-6.96,9.06c-2.24,17.42-3.03,34.25,22.25,34.33
		c9.11,0.03,18.44,0.52,27.3,2.47c82.94,18.29,165.91,36.46,248.61,55.79c25.95,6.07,52.33,9.94,77.66,20.17
		c15.68,6.33,33.85,15.81,52.7,6.38c0.4,1.3,0.8,2.61,1.77,5.79c6.29-3.15,11.79-5.89,17.29-8.64c16.2-7.45,31.87-15.76,45.04-28.06
		l-0.04,0.03c2.35-1.34,4.7-2.69,7.04-4.03c0,0-0.04,0.03-0.04,0.03c1.68-1.34,3.35-2.69,5.03-4.03l-0.03,0.02
		c4.35-2.34,8.69-4.69,13.04-7.03c0,0-0.04,0.04-0.04,0.04c8.01-5.35,16.01-10.69,24.02-16.04l-0.02,0.01
		c19.32-12.01,38.64-24.02,57.95-36.03c0.69-0.67,1.37-1.33,2.06-2c7.5-2.71,15-5.42,22.69-8.19c-0.92-1.26-1.8-2.46-2.68-3.67
		c8.27,1.47,16.5,3.34,24.83,4.32c24.35,2.86,47.62,13.02,72.73,10.65c0.65,1.85,1.31,3.71,1.98,5.62c2.26,0,4.2,0,6.05,0
		c3.53-6.49,9.95-7.4,15.28-9.09c3.11-2.21,5.78-4.09,8.45-5.98c-0.36-0.46-0.71-0.93-1.07-1.39c11.41-8.19,22.82-16.38,35.26-25.32
		c-0.48-2.77-1.11-6.38-1.73-9.99c0.09-12.19,7.21-25.84-7.51-35.72c0-25.84,0-52.39,0-78.85c9.38-6.32,5.77-15.31,4.69-23.45
		c-1.03-7.79-8.89-5.53-13.4-8.2c-17.64-10.46-53.52,10.97-54.37-29.75c1.84-1.35,2.87-2.11,3.9-2.86
		c3.48-1.78,6.96-3.56,10.43-5.34c4.53-2.55,9.05-5.1,13.58-7.65C869.75,667.37,871.28,666.53,872.82,665.69z"/>
	<path fill="#161110" d="M846.67,906.19c-25.1,2.37-48.38-7.79-72.73-10.65c-8.33-0.98-16.55-2.85-24.83-4.32
		c-1.19-0.28-2.38-0.56-3.57-0.83c-0.48-0.05-0.95-0.11-1.43-0.16c-9.07-3.54-17.34-3.04-24.17,4.76
		c-54.28,35.76-108.57,71.52-162.85,107.28c-0.37,0.27-0.73,0.53-1.1,0.8c0,0,0.04-0.04,0.04-0.04c-18.84,9.43-37.02-0.05-52.7-6.38
		c-25.33-10.23-51.71-14.11-77.66-20.17c-82.7-19.33-165.67-37.49-248.61-55.79c-8.86-1.95-18.19-2.44-27.3-2.47
		c-25.29-0.09-24.49-16.91-22.25-34.33c0.37-2.88,3.99-5.34,6.96-9.06c0-13.55,0-28.82,0-37.83c-6.01-17.27-10.28-28.12,3.41-38.33
		c-1.35-10.06,9.84-9.75,15.33-14.56c-7.8-14.99-6.33-25.27,11.32-27.4c10.27-14.27,25.55-19.77,39.51-27.1
		c4.74,0.44,9.48,0.88,14.23,1.32c11.35,1.45,22.69,2.9,34.04,4.34c-0.39,0.32-0.77,0.63-1.15,0.95
		c-21.69-1.61-43.76-8.72-63.84,3.99c35.81-0.28,71.11,7.19,106.49,14.07c-10.9-1.37-21.8-2.74-32.71-4.11
		c-0.26-0.09-0.53-0.11-0.8-0.06c-3.85-0.69-7.7-1.39-11.55-2.08c-0.49,0.03-0.98,0.06-1.48,0.09c-1.54-0.36-3.09-0.71-4.63-1.07
		c-25.28-3.55-51.14-12.99-77.74,9.17c9-1.81,14.16-2.85,19.32-3.89c-4.17,1.87-8.35,3.74-11.6,5.2c1.82,2.3,3.49,4.42,5.17,6.54
		c0.77,5.72,1.55,11.44,2.48,18.35c9.55,2.23,13.17,9.98,11.77,21.34c5.49,0.81,10.78,1.59,16.08,2.37
		c12.81,2.84,25.58,5.9,38.44,8.49c83.83,16.83,167.67,33.55,251.51,50.31c3.5,0.86,6.9,1.47,8.11-3.3
		c5.07-3.14,10.14-6.28,15.44-9.57c-0.61-0.96-1.53-2.44-2.46-3.91c-0.14-4.29-0.28-8.58-0.42-12.87c0.19-0.68,0.38-1.35,0.56-2.03
		c1.48-1.66,2.96-3.32,4.44-4.98l0.27,0.03l0.1-0.25c0.38-0.29,0.75-0.58,1.13-0.87l-0.07,0.07c1.35-0.69,2.69-1.39,4.04-2.08
		c0.31-0.01,0.61-0.05,0.91-0.13c2.62,0.23,5.23,0.46,7.85,0.69c9.27,2.53,12.99,9.91,15.46,23.56
		c2.35-23.66-9.01-32.38-23.79-37.02c-59.84-18.81-121.82-28.11-183.37-38.67c-53.65-9.21-106.54-25.62-162.03-21.28
		c10.89-7.14,22.57-2.93,33.99-2.33c111.4,17.81,222.98,34.77,336.92,67.36c-4.24,2.58-2.45,1.49,1-0.61
		c-3.14,0.66-4.36,0.91-5.99,1.25c0-2.83,0-5.43,0-8.04c8.1,0.8,9.91,7.53,12.64,13.39c3.68,18.1,7.36,36.2,11.05,54.38
		c2.25-1.39,5.16-3.19,8.32-5.15c-1.11-6.92-2.2-13.73-3.3-20.53c-2.28-13.6-4.56-27.2-6.84-40.8c0.36-0.42,0.72-0.85,1.08-1.27
		c0.28,0.28,0.56,0.55,0.83,0.83c1.1,4.2,2.2,8.4,3.3,12.6c2.39,15.42,4.78,30.84,7.41,47.78c14.92-9.29,28.84-17.96,40.98-25.52
		c-1.03-9.62-1.72-16.03-2.41-22.45c-2.02-15.35-4.04-30.7-6.06-46.06c-1.24-1.84-2.48-3.68-3.71-5.52
		c3.12,3.52,6.25,7.05,9.37,10.57c2.41,12.03,4.83,24.05,7.24,36.08c0.51,7.71,1.02,15.42,1.55,23.31
		c27.15-10.34,31.01-15.35,29.36-41.1c-0.57-8.86-3.23-17.58-4.94-26.36c-1.34-4-2.67-8-4.01-12c-0.61-1.14-1.21-2.28-1.82-3.42
		c-0.2-0.22-0.4-0.44-0.6-0.67c-13.37-10.46-29.44-14.72-45.35-18.76c-64.1-16.27-129.11-27.85-194.56-37.28
		c-49.12-7.08-98.18-19.5-146.3,4.3c-1.43,0.38-2.92,0.62-4.28,1.17c-18.36,7.36-36.71,14.75-55.06,22.14
		c3.89-2.11,7.79-4.23,11.86-6.44c0-15.86,0-31.83,0-41.35c-3.22-15.95-9.79-26.28,4.15-32.72c22.7-10.49,45.66-20.42,70.12-31.31
		c-0.14,0.43,0.44-1.38,1.08-3.36c-1.32-2.4-2.65-4.82-3.91-7.11c1.34-2.29,2.51-4.29,3.58-6.1c-0.72-1.59-1.34-2.96-1.96-4.32
		c4.44,0.05,8.88,0.1,13.33,0.14c1.86,0.35,3.73,0.69,5.59,1.04c1.1,0.65,2.2,1.3,3.3,1.95c-0.48,1.31-0.96,2.62-1.32,3.6
		c4.87,5.35-3.32,13.91,4.38,18.35c0,0-0.16,0.16-0.16,0.16c-2.18-1.55-4.35-3.1-8.03-5.71c0.41-0.08-1.26,0.24-2.93,0.57
		c-2.45-0.35-4.9-0.69-8.19-1.16c-0.48,5.41-0.94,10.48-1.46,16.33c3.52,0.35,6.58,0.66,9.64,0.97c2.89-0.34,5.78-0.68,7.72-0.92
		c1.75-3.75,2.99-6.42,4.23-9.08c0,0,0.13-0.13,0.13-0.13c19.48,4.18,38.96,8.36,58.82,12.62c0-49.68,0-97.94,0-146.5
		c-2.06-1.24-4.21-2.53-6.19-3.73c0.82-2.06,1.45-3.65,2.09-5.24c0.93,1.13,1.87,2.26,2.56,3.11c8.74,1.9,17.27,3.75,26.71,5.81
		c1.21-0.13,3.41-0.36,5.75-0.61c0-7.3,0-14.32,0-22.47c-12.23,2.67-23.62-9.13-35.68-0.02c-4.76-6.96,3.69-4,4.96-7.88
		c-1.52-11.01,10.97-9.36,16.53-15.49c-3.29-7.96-7.53-16.68,3-23.39c6.16-3.93,12.19-2.41,16.86,2.1
		c6.97,6.74,5.41,14.54,0.23,22.2c8.65,1.26,16.34,3.16,17.58,13.88c109.29,16.16,218.61,32.33,332.6,49.19
		c-7.11-15.87-11.14-24.65-0.64-31.27c6-3.78,12.53-3.47,17.46,1.39c6.38,6.28,7.19,13.93,1.67,21.61
		c20.76,6.3,30.74,31.14,17.67,44.23c0,20.3-0.03,40.93,0.08,61.56c0.01,1,1.25,2,1.91,3c-1.33,1.24-2.66,2.49-3.98,3.73
		c-3.5,19.71-7,39.41-10.52,59.22c6.99,1.79,13.16,3.38,19.33,4.96c-2.22,0-4.44,0-6.73,0c0,8.39,0,16.13,0,24.16
		c6.48,1.02,12.84,2.02,19.34,3.03c0.58-3.29,1-5.66,1.34-7.62c-0.98-2.62-1.84-4.88-2.76-7.34c0.93-1.13,1.85-2.23,2.76-3.34
		c0.1,2.13,0.2,4.26,0.31,6.8c5.17-2.63,8.53,0.02,11.25,3.23c3.32-0.97,6.24-1.82,9.39-2.73c0-1.72,0-3.48,0-7.22
		c-7.15,0-14.09,0-21.02,0c0.69-1.58,1.38-3.15,2.07-4.73c8.06,0.63,16.11,1.27,24.17,1.9c0,0,0.07,0.07,0.07,0.07
		c-1.03,0.75-2.05,1.51-3.9,2.86c0.84,40.72,36.73,19.29,54.37,29.75c4.52,2.68,12.37,0.41,13.4,8.2
		c1.08,8.14,4.69,17.13-4.69,23.45c0,26.46,0,53.01,0,78.85c14.72,9.88,7.6,23.53,7.51,35.72c-18.25,13.29-36.5,26.58-54.75,39.87
		c-1.93,1.33-3.86,2.66-5.79,4c-0.44,0.32-0.88,0.63-1.32,0.95c-0.79,0.45-1.58,0.89-2.37,1.34
		C846.66,906.2,846.67,906.19,846.67,906.19z M552.1,963.02c-0.35,0.36-0.71,0.71-1.06,1.07l-0.01-0.12
		c-3.98,1.57-7.96,3.14-11.95,4.7c-12.53-2.66-25.06-5.33-37.93-8.06c0.64,2.53-1.44,6.4,3.79,6.67c-1.22,0.76-2.45,1.52-3.45,2.14
		c0,5.87,0,11.62,0,18.06c13,2.54,25.78,5.04,38.56,7.54c3.99-0.27,7.99-0.55,12.72-0.87c0-8.08,0-15.13,0-22.17
		c0.22-0.21,0.35-0.46,0.4-0.76c8.47-5.16,16.95-10.33,29.72-18.11c-15.32-1.66-21.02,4.41-27.7,8.09c-0.39,0.3-0.79,0.59-1.18,0.89
		l0.1-0.05c-0.7,0.35-1.4,0.71-2.1,1.06L552.1,963.02z M287,691.08l0.07-0.06c-1.67,1.35-3.34,2.69-5.01,4.04
		c-0.42,0.25-0.84,0.5-3.43,2.05c2.94-0.68,3.42-0.8,3.9-0.91c2.89-1.01,5.78-2.03,8.67-3.04l-0.1,0.25
		c0.98-0.16,1.96-0.33,2.93-0.49c12.09-0.95,24.18-1.9,36.26-2.85c0.46,0.32,0.9,0.88,1.39,0.92
		c99.31,8.86,197.06,26.45,293.3,52.49l-0.13-0.18c3.39,1.36,6.78,2.72,10.17,4.07l-0.13-0.13c1.02,0.43,2.03,0.86,3.05,1.29
		l-0.07-0.17c3.72,2.11,7.44,4.22,11.15,6.33c14.58,16.97,12.21,38.36,15.23,58.34c0,3.26,0,6.52,0,13.54
		c17.35-10.46,32.78-19.75,48.2-29.04c0.99-0.69,1.99-1.37,2.98-2.06c0.51-0.58,1.01-1.15,1.52-1.73c3.85-1.76,7.69-3.52,11.52-5.27
		c0-9.41,0-17.78,0-26.38c-1.59-1.33-3.34-2.79-5.08-4.25c-2.74-13.57,0.7-23.59,14.36-29.89c8.19-3.77,19.35-7.36,14.17-20.96
		c-0.24-2.99-0.49-5.98-0.73-8.96l0.04,0.03c-6.45-14.82-20.66-7.24-31.03-10.74c-7.56,0.07-11.42,4.86-14.13,11.11
		c-8.28,3.12-16.56,6.24-24.48,9.22c8.77,4.98,17.14,9.73,25.51,14.48c1.33,2.02,2.65,4.03,3.98,6.05l-0.04-0.05
		c0.41,1.96,0.82,3.93,1.24,5.89c1.96,16.35,3.99,32.69,5.78,49.06c0.22,1.97,1.24,5.44-3.13,4.96c0.48-18.59-0.64-37-5.94-54.97
		c-4.2-20.14-23.78-18.35-36.85-25.83c-0.39-0.25-0.78-0.5-1.21-0.76c-0.23,0.17-0.45,0.33-0.68,0.5l-0.04,0.01
		c-30.73-12.02-62.82-18.83-95.12-24.83c-11.97-2.34-23.94-4.68-35.91-7.02c-30.01-4.63-60.03-9.25-90.04-13.88
		c-10.97-0.71-21.93-1.41-32.9-2.12c-36.06-1.39-72.24-3.52-105.19,15.78c-6.86,4.37-13.72,8.74-20.58,13.12l-0.26-0.07
		c0,0-0.12,0.24-0.12,0.24c-0.33,0.22-0.66,0.44-0.99,0.66c-18.31-3.71-36.62-7.42-55.22-11.19c0,13.74,0,24.99,0,37.33
		c8.41-3.3,15.81-6.21,22.84-8.96c0.29-4.18,0.54-7.75,0.92-13.27c11.47,6.99,20.65,0.88,30.22-2.69
		C287.56,690.42,287.28,690.75,287,691.08z M823.96,840.93c5.21-0.1,2.77-3.15,2.39-7.4c-2.33,3.02-3.7,4.8-5.08,6.57
		c-0.5,0.81-1,1.63-1.88,3.05C821.41,842.17,822.68,841.55,823.96,840.93z M412.95,579.18c0-26.89,0-53.79,0-80.68
		c-1.82,24.29-1.97,48.57-1.7,72.85c0.06,5.06-4.31,10.61,1.19,15.26c-6.11,21.19-12.22,42.37-18.52,64.21
		c1.92,1.57,4.04,3.31,6.16,5.05c0.36-0.24,0.72-0.49,1.08-0.73c0.11-1.25,0.22-2.5,0.34-3.75l0-0.02c0.29-1.62,0.58-3.24,0.87-4.86
		c0.2-0.82,0.4-1.63,0.6-2.45c5.34-16.06,10.69-32.12,16.03-48.18c-5.64,19.64-11.27,39.28-16.72,58.26
		c32.7,3.72,63.82,7.27,94.94,10.81c0.67,0.29,1.35,0.58,2.02,0.87c4.26,0.42,8.52,0.83,12.78,1.25
		c3.61-12.32,7.23-24.65,10.84-36.97c1.44-6.22,2.89-12.45,4.83-20.84c-37.29-0.86-72.46-8.24-107.84-14.27
		c3.04-0.41,6.2-1.61,9.08-1.12c18.58,3.18,36.98,7.86,55.67,9.95c44.99,5.04,44.96,4.56,34.75,48.88
		c-1.19,5.17-0.92,10.68-1.32,16.03c2.44,0.47,4.87,0.93,6.86,1.31c4.43-18.48,8.81-36.73,13.19-54.97
		c4.7-7.57,2.01-11.83-7.91-12.97c-25.61-2.95-51.17-6.36-76.82-8.9c-13.79-1.36-25.82-13.04-40.8-6.72
		c0.42-2.17,0.83-4.33,1.25-6.5c0.09-0.64,0.17-1.27,0.26-1.91c2.07-2.98,4.13-5.96,6.2-8.94c-1.8,4.18-3.6,8.36-4.99,11.6
		c26.41,8.28,52.91,14.16,80.11,17.34c15.69,1.84,32.69-2.75,46.91,7.97c0.25,5.73,0.5,11.45,0.75,17.18
		c-1.59,8.98-3.18,17.96-4.76,26.94c0.67,0.15,1.33,0.3,2,0.45c1.61-6.41,3.21-12.82,4.82-19.23c1.03-3.42,2.07-6.84,3.1-10.26
		l-0.02,0.12c3.5-6.78,3.06-15.96,13.11-19.45c-0.64-5.07-1.25-9.92-1.86-14.77c-1.44-0.66-2.82-1.74-4.31-1.93
		c-24.63-3.15-49.31-5.87-73.89-9.36c-19.26-2.74-38.4-6.4-57.59-9.65l0-0.04c-1.14,1.05-2.29,2.1-3.43,3.15
		c0.38-6.02,4.11-7.17,9.18-6.21c19.66,3.75,39.32,7.53,58.98,11.3c6.59,1.21,13.17,2.42,19.76,3.62
		c11.67,1.02,23.35,2.04,35.02,3.06c4.92,0.71,9.85,1.42,14.77,2.12c9.83,1.59,19.65,3.18,29.48,4.77c0.77,0.1,1.54,0.2,2.31,0.3
		c0,0,0.35,0.26,0.35,0.26c6.2,1.26,12.41,2.52,18.61,3.77c14.22,2.68,28.44,5.35,42.66,8.03c4.26,0.59,8.53,1.17,12.79,1.76
		c14.12,1.64,28.21,3.76,42.38,4.81c32.14,2.38,17.81,23.48,16.29,39.49c-2.15,7.7-4.3,15.4-6.08,21.81
		c0.96,4.21,1.65,7.27,2.33,10.23c6.37,1.59,12.53,3.13,18.93,4.72c0-9.2,0-18.05,0-26.91c-0.93-18.6-1.76-37.21-2.84-55.8
		c-0.32-5.44-1.35-10.84-2.06-16.26l0.07,0.06c0.86-11.89,1.73-23.78,2.64-36.42c-7.82-0.91-14.77-1.72-21.72-2.52
		c-2.59-0.4-5.18-0.8-7.77-1.19c-0.73-0.29-1.46-0.58-2.19-0.86c-14.21-2.35-28.39-4.9-42.64-7.02
		c-37.75-5.62-75.57-10.81-113.29-16.62c-44.35-6.83-88.64-14.14-132.95-21.24c-0.36,26.63-0.72,53.27-1.08,79.9
		C413.74,578.48,413.35,578.83,412.95,579.18z M804.27,717.34c-0.46,0.77-0.92,1.55-1.37,2.32c-0.02,0.5-0.05,1-0.07,1.5
		c-0.14,5.4,20.86,12.21,31.54,9.87c-0.81-1.64-1.55-3.14-2.28-4.63c5.86-1.01,1.42-5.19,3.65-9.06
		C824.42,717.34,814.35,717.34,804.27,717.34z M741.75,520.15c-0.18,1.5-0.37,3-0.55,4.5c0,4.29,0,8.58,0,12.39
		c1.43,2.11,2.59,3.82,4.03,5.94c9.28,1.32,19.07,2.72,28.85,4.11c21.79-4.08,32.58-19.33,21.12-33.47
		c-5.89,3.74-12.04,7.64-18.19,11.54C765.54,521.56,754.14,517.4,741.75,520.15z M746.99,688.52c1.64,0.56,3.27,1.12,4.91,1.68
		c0.7,1.69,1.4,3.38,2.1,5.07c1.22,6.49,2.44,12.97,3.8,20.23c2.93-1.66,6.1-3.47,9.28-5.27c1.42-2.99,4.04-5.96,4.09-8.96
		c0.68-42.36-0.8-84.85,2.09-127.04c1.71-25.03-11.41-26.06-29.01-25.57c0,2.13,0,4.6,0,7.07c0,43.62,0,87.24,0,130.86
		c0.79,0.55,1.57,1.1,2.35,1.64L746.99,688.52z M552.73,858.43c-2.14-1.08-4.28-2.16-6.41-3.23c-4.32,1.4-8.44,2.73-12.56,4.06
		c-2.05-0.38-4.1-0.76-6.15-1.15c-1.19-1.42-2.37-2.84-3.85-4.62c-5.65,5.16-16.23,4.11-15.69,14.75
		c9.35,2.26,18.16,4.39,26.98,6.53c10.41,2.19,12.61-10.73,21.58-10.78c-0.15-2.42-0.24-4-0.35-5.83
		C554.97,858.25,553.85,858.34,552.73,858.43z M759.31,492.91l-0.22,0.13l0.21-0.15c3.86,7.81,10.08,4.57,15.51,3.88
		c7.23-10.1,6.31-17.99-1.98-20.45c-10.2-2.75-15.09,1.23-14.85,11.72C754.71,490.68,755.61,492.17,759.31,492.91z M133.01,809.63
		l-0.07,0.08c0,5.26,0,10.52,0,16.35c12.03,2.23,23.88,4.42,36.64,6.78c-0.59-6.13-1.08-11.19-1.57-16.26
		c0.98-1.7,1.96-3.4,3.07-5.33c-1.61-0.74-2.76-1.26-3.91-1.79c-11.12-1.81-21.72-7.66-33.51-4.36c-0.18,0.86-0.36,1.71-0.53,2.57
		C133.1,808.33,133.05,808.98,133.01,809.63z M307.06,642.06c6.57-2.52,13.14-5.05,19.14-7.35c0.58-2.4,0.9-3.74,1.21-5.06
		c-2.16-0.43-4.07-0.82-3.51-0.7c-6.82,3.37-11.87,5.87-16.92,8.37c-0.05-0.37-0.09-0.75-0.14-1.12c-0.27-0.26-0.54-0.52-0.82-0.78
		c-9.63,3.74-20.53-7.57-29.63,2.49c-0.23,1.39-0.45,2.78-0.87,5.37c10.57,1.89,20.6,3.68,30.71,5.48c0-2.98,0-4.6,0-6.22
		C306.54,642.42,306.82,642.27,307.06,642.06z M829.72,697.47c-2.61-0.15-5.22-0.29-8.19-0.46c-0.4,5.84-0.78,11.52-1.23,18.13
		c5.63,0,10.39,0,15.15,0c3.47-1.68,6.95-3.36,13.87-6.71c-11.66-1.55-9.45-8.34-11.13-13.03
		C835.07,696.16,832.4,696.82,829.72,697.47z M407.09,454.08l0.04,0.04c-0.11-0.93-0.22-1.86-0.34-2.8
		c-1.34-1.64-2.69-3.28-3.33-4.07c-9.33-4.43-16.07-0.14-23.3,4.27c1.45,0.52,2.33,0.84,3.76,1.36c-1.98,0.41-3.37,0.7-5.12,1.07
		c-0.42,1.33-0.83,2.64-1.4,4.47c5.36,0.98,10.19,1.87,6.01,1.11c11.06,1.34,13.05,1.58,15.08,1.83c0.62-0.36,1.6-0.95,2.59-1.53
		c0.57,1.45,1.14,2.89,1.97,5.01c7.86-3.23,15.09-6.21,22.08-9.08c-3.12-12.02-10.3-7.14-16.37-6.12
		C408.21,451.11,407.65,452.6,407.09,454.08z M812.05,845.98c-13.81-2.56-27.61-5.11-41.59-7.7c0,3.08,0,4.85,0,7.12
		c14.65,2.58,29.12,5.12,43.59,7.67c5.61-0.79,10.9-1.94,10.96-9.7C820.23,844.33,816.14,845.16,812.05,845.98z M772.05,830
		c-0.61,1.09-1.21,2.18-2.01,3.62c15.4,2.94,29.92,5.71,44.46,8.49c0.98-1.52,1.79-2.77,2.59-4.02c4.54-1.54,1.83-4.78,0.24-5.17
		C802.45,829.25,787.85,819.49,772.05,830z M153.77,765c-5.77,5.28-3.36,10.84,0.84,14.87c5.65,5.43,12.6,7.51,19.24,0.94
		c2.17-2.14,4.83-4.75,0.57-7.26c2.15-8.64,0.47-14.28-9.68-14.04C161.09,761.33,157.43,763.17,153.77,765z M531.01,827.68
		c-2.08,1.77-4.16,3.54-6.25,5.32c-1.5,1.29-4.01,2.38-4.31,3.91c-1.21,6.17,0.18,11.8,4.97,15.79c11.69,1,21.29-1.56,20.67-14.98
		C545.73,829.83,539.37,826.07,531.01,827.68z M169.06,804.08c6.62-3.16,13.25-6.32,19.87-9.48c-1.03-1.99-1.62-5.17-3.18-5.74
		c-4.88-1.8-9.97-4.79-15.4-1.3c-5.56-0.36-11.11-0.73-16.48-1.08c-4.85,3.32-9.56,6.56-16.92,11.61
		C150.12,800.54,159.59,802.31,169.06,804.08z M320.91,666.85l-0.02-0.02c19.19-6.61,38.37-13.23,57.34-19.76
		c0-50.38,0-99.56,0-148.74c-0.48,0-0.97,0-1.45,0c0,48.44,0,96.87,0,145.76c-2.11-1.34-3.45-2.19-4.79-3.05
		c0.77-1.16,1.54-2.33,2.64-3.99c-15.01-2.48-29.52-4.87-44.9-7.41c1.48,4.4,2.64,7.84,3.82,11.35
		c-18.54,15.42-39.28,9.82-60.78,4.31c-0.17-3.1-0.37-6.61-0.53-9.42c5.24-6.39,15.52-4.96,19.19-17.32
		c-25.92,12.36-49.33,23.52-72.73,34.68c-0.82,1.45-1.63,2.9-2.45,4.35c0,4.11,0,8.21,0,15.21c32.22-4.33,63.14,22.12,95.19-0.71
		c2.19-1.21,4.39-2.43,6.58-3.65c0.32-0.14,0.65-0.28,0.97-0.42C319.63,667.62,320.27,667.24,320.91,666.85z M843.96,872.96
		c-37.7-5.77-75.41-11.53-113.77-17.4c0,2.29,0,3.9,0,5.5c0,6.77,0,13.54,0,19.54c5.1,0.85,7.94,1.32,10.78,1.79
		c-1.66,4.15,1.53,5.15,4.22,5.72c8.09,1.73,16.25,3.11,24.39,4.6c24.25,4.44,48.49,8.87,73.42,13.43c0-3.99,0-5.96,0-7.93
		c0.43-7.34,0.85-14.67,1.28-22.01c0.32-0.31,0.65-0.61,0.97-0.92c25.01-8.39,41.72-28.88,63.75-41.95
		C903.84,827.55,849.6,862.04,843.96,872.96z M847.78,731.91L847.78,731.91c-16.76,7.77-32.17-1.56-48.35-2.76
		c0-4.51,0-7.97,0-12.46c5.51-3.26,11.39-6.74,18.7-11.06c-7.02-1.17-12.94-2.16-18.86-3.14c-2.95-0.67-5.89-1.35-9.16-2.1
		c-6.65,3.56-13.85,6.69-20.27,10.99c-12.91,8.65-28.88,12.76-38.69,25.99c0.01,0.45,0.02,0.89,0.03,1.34
		c-7.95,4-2.14,10.78-3.97,16.34c2.07,0.8,3.53,1.67,5.09,1.93c20.32,3.44,40.65,6.83,60.98,10.16c16.61,2.72,33.24,5.33,49.86,8
		c21.3-12.21,42.61-24.42,64.49-36.96c-3.03-4.89,4.2-12.29-4.94-15.22c0.85-1.21,1.7-2.42,3.47-4.95
		c-17.7-2.81-34.03-5.41-50.28-7.99c0.85,5.05,1.58,9.37,2.41,14.3c-3.41,2.07-6.9,4.18-10.39,6.29
		C847.86,731.04,847.82,731.48,847.78,731.91z M134.11,896.09c0,3.76,0,7.52,0,10.63c11.49,2.19,22.33,4.26,34.09,6.5
		c0-7.63,0-13.85,0-20.08c1.68-2.9,1.7-6.04-1.85-6.76c-11.32-2.3-22.76-4.03-34.23-5.99C133.05,887.72,133.58,891.91,134.11,896.09
		z M694.28,632.05c-0.31,7.32-0.61,14.64-0.92,21.97c-2.07,14.76-4.15,29.52-6.33,45.11c6.4,0,10.99,0,15.59,0
		c1.92-8.73,4.16-16.44,5.23-24.31c2.85-20.81,14.05-39.96,12.22-61.67c-0.33-0.34-0.66-0.69-0.99-1.03
		c-2.29-0.99-4.52-2.7-6.86-2.86c-39.6-2.63-78.65-8.66-117.39-17.37c-11.89-2.67-28.62-13.46-30.24,11.77
		c18.85,8.3,38.98,13.31,59.54,16.54c22.94,3.6,45.95,6.73,68.93,10.07c0.27,0.3,0.53,0.59,0.8,0.89
		C693.97,631.48,694.11,631.77,694.28,632.05z M301.3,912.48c-42.34-9.1-84.67-18.2-130.05-27.96c2.37,5.45,3.47,7.99,4.57,10.53
		c0,5.86,0,11.71,0,17.65c4.21,0.54,7.28,0.93,10.35,1.33c65.95,14.31,131.9,28.62,197.85,42.93
		c36.29,8.18,72.59,16.36,108.76,24.51c1.52-8.11,2.86-15.27,4.19-22.43c-3.42-7.61-11.42-4.13-16.82-6.95
		c-1.82-0.64-3.6-1.48-5.48-1.89C416.89,937.6,359.09,925.04,301.3,912.48z M542.74,905.96c8.44-5.44,17.77-9.98,24.84-16.84
		c2.38-2.31-0.97-10.53-1.7-16.04c-2.14-0.04-4.71-0.88-6.35,0.01c-9.88,5.38-19.12,10.38-31.48,6.15
		c-16.88-5.78-35.18-10.8-26.6,20.28C514.68,900.64,527.77,908.72,542.74,905.96z M728.56,794.66c0-1.02,0-2.04,0-3.81
		c-52.68,31.05-104.72,61.72-156.77,92.4c0.27,2.64,0.45,4.42,0.64,6.2c-1.04,3.41-2.82,7.24,3.62,6.45
		c-1.91,1.75-3.83,3.49-5.61,5.12c0,3.53,0,6.9,0,11.87c53.53-33,106.07-65.38,159.04-98.02c-0.64-3.98-1.26-7.89-1.88-11.8
		C727.91,800.27,728.24,797.47,728.56,794.66z M663.02,701.17c2.77,0.61,5.54,1.22,8.37,1.85c0.88-3.33,1.61-6.44,2.51-9.5
		c5.73-19.48,11.5-38.95,17.26-58.42c0.84-7.25-4.86-6.64-8.98-6.89c-39.9-2.39-79.27-7.42-116.74-22.37
		c-5.69-2.27-9.59,0-11.14,4.85c-6.45,20.19-12.37,40.56-18.54,61.01c3.04,0.53,5.4,0.94,7.75,1.35c3.52-18.93,8.1-37.11,16.54-54.1
		c-4.99,17.9-9.99,35.8-14.85,53.23c39.05,9.29,76.88,18.28,115.03,27.36c5.9-20.37,11.8-40.75,18.2-62.86
		c-40.42-3.06-78.15-10.87-115.65-19.88c2.42-0.23,4.97-1.08,7.24-0.6c18.25,3.89,36.34,8.59,54.69,11.92
		c18.04,3.28,36.32,5.26,55.18,7.9C673.91,659.14,668.47,680.15,663.02,701.17z M540.19,961.39c8.05-3.64,16.1-7.28,23.55-10.65
		c0-17.02,0-32.51,0-49.03c-8.34,4.37-15.98,8.37-23.63,12.38c-11.46-2.69-22.92-5.37-35.15-8.24c0,16.99,0,33,0,49.25
		C516.99,957.25,528.59,959.32,540.19,961.39z M754.12,844.93c-3.92,2.11-7.85,4.23-14.41,7.76c37.06,2.58,70.16,14.95,105.34,13.93
		c0-30.58,0-57.56,0-84.53c0,26.71,0,53.42,0,77.61c60.34-16.98,63.49-62.15,53.62-113.01c-12.72,17.4-43.31,15.95-48.56,39.11
		c0.07,1.2-0.14-2.56-0.37-6.92c-2.21,1.1-3.54,1.76-4.86,2.42c-5.17-0.6-10.35-1.2-16.32-1.89c0,27.32,0,54.19,0,83.12
		c-2.82-3.38-4.35-5.22-5.61-6.73c-2.27,0.12-4.07,0.22-5.86,0.32C796.11,852.38,775.11,848.66,754.12,844.93z M738.33,518.25
		c2.55-0.91,5.09-1.81,7.64-2.72c8.93,0.72,17.87,1.44,26.95,2.17c0.12-1.91,0.24-3.7,0.36-5.49c1.06,1.82,2.12,3.64,3.79,6.52
		c5.38-3.15,10.76-6.3,16.76-9.82c-6.76-9.37-15.76-6.51-24.21-7.63c-0.27,2.42-0.45,4.02-0.63,5.62
		c-5.91-2.3-12.31-9.66-17.55,1.81c-1.66-0.41-3.81-1.13-6.02-1.46c-89.1-13.59-178.12-27.8-267.38-40.24
		c-21.08-2.94-43.06-15.27-64.51-0.17c-7.32,4.28-1.4,11.12-3.18,16.46c0.54,1.32,1.09,2.64,1.63,3.95
		c-0.62,1.64-1.24,3.27-1.88,4.96c26.38,4.04,51.5,7.87,76.61,11.73c54.2,8.34,108.4,16.71,162.6,25.06
		c28.85,4.34,57.71,8.69,87.13,13.11c0.57-8.35,1.08-15.87,1.6-23.38C738.09,518.54,738.18,518.38,738.33,518.25z M384.24,646.79
		c2.61,0,5.21,0,8.22,0c1.57-6,3.07-11.69,4.56-17.38c2-7.61,4.01-15.23,6.01-22.84c0.03-35.98,0.06-71.96,0.1-107.94
		c0-1.61,0-3.22,0-5.01c-7.65-0.9-14.99-1.76-22.52-2.65c0,52.05,0,103.7,0,155.66C382.04,646.69,383.14,646.74,384.24,646.79z
		 M822.13,824.37c1.41,2.26,2.82,4.52,4.6,7.36c0-17.93,0-35.31,0-53.45c-1.78,0.28-3.12,0.5-4.45,0.71
		c-24.41-4.86-48.82-9.72-73.34-14.6c0,16.75,0,32.01,0,47.4C773.66,816.05,797.89,820.21,822.13,824.37z M180.52,814.05
		c-0.42,1.84-0.84,3.68-1.27,5.52c0,4.58,0,9.16,0,13.05c105.95,21.64,210.62,43.02,315.74,64.5c0-4.94,0-9.73,0-14.51
		c0.44-2.04,0.88-4.07,1.32-6.11c2.85-2.46,5.7-4.91,9.25-7.98c-90.68-18.25-180.46-36.91-270.54-53.95
		C217.47,811.24,198.73,797.78,180.52,814.05z M499.2,950.02c0-15.25,0-30.36,0-46.5c-53.44-11.1-106.97-22.22-160.91-33.42
		c0,15.85,0,30.44,0,44.63C391.94,926.49,445.25,938.19,499.2,950.02z M180.16,881.64c50.68,10.82,101,21.56,151.57,32.35
		c0-15.14,0-29.74,0-44.62c-50.5-10.43-100.82-20.83-151.57-31.32C180.16,853.48,180.16,867.28,180.16,881.64z M569.62,951.23
		c54.45-33.83,106.65-66.25,158.11-98.22c0-11.39,0-21.21,0-31.83c-53.31,32.91-105.9,65.38-158.11,97.61
		C569.62,928.28,569.62,937.21,569.62,951.23z M778.16,704.39c5.89-2.83,10.76-5.18,16.24-7.81c-0.42-7.54-0.84-15.07-1.26-22.62
		c-3.78-1-6.76-1.79-10.3-2.73c6.1-41.41,15.96-82.35,10.08-124.29c-6.49,2.02-12.61,3.92-18.31,5.69c0,51.61,0,102.04,0,152.47
		c0.62,0.01,1.23,0.02,1.85,0.03c0-29.24,0-58.48,0-87.72c0.57,0.01,1.14,0.01,1.71,0.02C778.16,646.03,778.16,674.64,778.16,704.39
		z M731.06,865.98c-1.5-2.08-3-4.17-4.5-6.25c-48.97,30.69-97.95,61.39-147.03,92.16c0.26,1.33,0.47,2.79,0.83,4.21
		c0.34,1.37,0.83,2.7,1.73,5.55C632.26,929.42,681.66,897.7,731.06,865.98z M494.66,983.98c-85.11-19.16-169.44-38.14-254.8-57.36
		c-0.49,1.25-1.04,2.67-1.18,3.01c-4.71-0.65-8.19-1.13-11.68-1.61c-0.05,0.42-0.09,0.83-0.14,1.25
		c89.15,20.12,178.29,40.24,268.25,60.54C494.89,986.89,494.78,985.49,494.66,983.98z M168.7,882.19c0-15,0-29.51,0-44.28
		c-9.52-1.68-18.6-3.29-28.07-4.96c0,14.64,0,28.56,0,43.23C149.89,878.16,159.22,880.16,168.7,882.19z M735.3,762.92
		c0,29.53,0,58.28,0,87.03c1.38,0.17,2.75,0.34,4.13,0.51c0-28.68,0-57.36,0-86.75C740.25,763.87,737.98,763.44,735.3,762.92z
		 M389.51,429.5c1.34,7.08,4.11,12.79,11.61,12.4c3.92-0.2,7.72-2.84,10.43-3.92c1.15-9.89,0.35-16.56-9.05-18.45
		C394.05,417.85,391.65,423.63,389.51,429.5z M541.87,1003.17c-0.97-2.54-1.78-4.66-2.41-6.29c-11.53-2.29-22.56-4.49-33.63-6.69
		c-1.61,1.25-3.08,2.38-6.1,4.71c17.26,3.82,32.74,7.25,39.82,8.81C546.38,1002.12,544.4,1002.58,541.87,1003.17z M223.49,718.81
		c0.96,0.14,1.92,0.28,2.88,0.42c0.63-13.67,1.27-27.34,1.93-41.47c-2.14-0.11-3.46-0.18-4.81-0.24
		C223.49,691.61,223.49,705.21,223.49,718.81z M220.3,676.66c-0.48,0.05-0.95,0.1-1.43,0.15c0,14.95,0,29.89,0,44.84
		c0.48-0.01,0.95-0.01,1.43-0.02C220.3,706.64,220.3,691.65,220.3,676.66z M741.85,549.3c-0.17,0-0.34,0-0.52,0
		c0,39.85,0,79.71,0,119.56c0.17,0,0.34,0,0.52,0C741.85,629.01,741.85,589.16,741.85,549.3z M405.39,599.96c0.17,0,0.35,0,0.52,0
		c0-34.23,0-68.46,0-102.69c-0.17,0-0.35,0-0.52,0C405.39,531.5,405.39,565.73,405.39,599.96z M501.51,953.24c0.32,0,0.64,0,0.95,0
		c0-15.77,0-31.54,0-47.32c-0.32,0-0.64,0-0.95,0.01C501.51,921.7,501.51,937.47,501.51,953.24z M502.49,901.62
		c-0.06,0.54-0.13,1.08-0.19,1.63c12.13,2.69,24.26,5.37,36.39,8.06c0.11-0.51,0.21-1.02,0.32-1.54
		C526.84,907.06,514.67,904.34,502.49,901.62z M795.79,545.37c-0.16,0-0.33,0-0.49,0c0,19.83,0,39.66,0,59.5c0.16,0,0.33,0,0.49,0
		C795.79,585.04,795.79,565.2,795.79,545.37z M293.87,608.64c0.78,1.56,1.22,3.35,1.75,3.37c1.94,0.1,3.91-0.4,7.87-0.95
		C299.04,609.95,297.01,609.44,293.87,608.64z M471.61,894.72c-0.15,0.38-0.3,0.76-0.45,1.14c3.58,0.84,7.17,1.67,10.75,2.51
		c0.09-0.39,0.18-0.79,0.27-1.18C478.65,896.36,475.13,895.54,471.61,894.72z M462.5,892.93c-0.16,0.37-0.32,0.74-0.48,1.11
		c1.95,0.36,3.91,0.71,5.86,1.07c0.06-0.32,0.11-0.63,0.17-0.95C466.2,893.75,464.35,893.34,462.5,892.93z M424.81,886.26
		c0.07-0.38,0.14-0.76,0.21-1.14c-1.95-0.37-3.89-0.74-5.84-1.11c-0.06,0.31-0.13,0.62-0.19,0.92
		C420.93,885.37,422.87,885.82,424.81,886.26z"/>
	<path fill="#BA8146" d="M302.29,597.02c-4.44-0.05-8.89-0.1-13.33-0.14c-10.27-1.56-20.53-3.12-33-5.01
		c3.03-18.73,6.03-37.26,9.03-55.79c1.38-0.12,2.76-0.24,4.14-0.35c12.54,3.13,25.09,6.27,37.19,9.29c1.23-1,3-2.44,4.77-3.88
		c0,0,0.03-0.01,0.03-0.01c0.31-0.01,0.59-0.12,0.84-0.31c6.67-3.18,13.33-6.35,20.02-9.54c-1.73-1.86-2.81-3.03-3.88-4.19
		c1.55,0.42,3.1,0.84,4.93,1.33c0.89,4.27,1.76,8.49,4.04,19.44c-0.7-3.67-0.11-0.57,0.48,2.54c-0.15,0.04-0.29,0.07-0.44,0.11
		c1.6,6.73,3.21,13.46,5.26,22.05c3.4,6.05,5.07,12.64-6.06,16.56c-8.59,3.03-16.77,7.23-25.13,10.9c-1.1-0.65-2.2-1.3-3.3-1.95
		c0-16.54,0-33.08,0-49.26c-7.8-0.95-14.83-1.8-21.86-2.66c-0.24-0.1-0.48-0.12-0.73-0.06c-1.4-0.34-2.79-0.67-4.19-1.01l0.03,0.01
		c-1.99-0.26-3.98-0.53-5.98-0.79c-2.49-0.59-4.98-1.19-7.66-1.82c-2.07,14.56-4.05,28.52-6.07,42.73c3.48,0.85,5.66,1.38,7.85,1.92
		C280.29,590.42,291.29,593.72,302.29,597.02z"/>
	<path fill="#F7F3E8" d="M557.09,1002.26c54.28-35.76,108.57-71.52,162.85-107.28c2.22,0.57,4.43,1.14,7.16,1.85
		c0.61,1.9,1.31,4.08,2.01,6.26c-0.69,0.67-1.37,1.33-2.06,2c-2-0.38-4-0.76-4.08-0.78c-4.57,2.79-7.65,4.47-10.51,6.46
		c-14.48,10.07-28.91,20.23-43.36,30.35c0,0,0.02-0.01,0.02-0.01c-9.5,3.1-17.49,8.48-24.02,16.04c0,0,0.04-0.04,0.04-0.04
		c-4.35,2.34-8.69,4.69-13.04,7.03l0.03-0.02c-1.68,1.34-3.35,2.69-5.03,4.03c0,0,0.04-0.03,0.04-0.03
		c-2.35,1.34-4.7,2.69-7.04,4.03c0,0,0.04-0.03,0.04-0.03c-15.01,9.35-30.02,18.71-45.04,28.06c-5.5,2.75-11,5.5-17.29,8.64
		c-0.98-3.19-1.37-4.49-1.77-5.79c0,0-0.04,0.04-0.04,0.04C556.36,1002.8,556.73,1002.53,557.09,1002.26z"/>
	<path fill="#BA8146" d="M369.27,465.95c12.07-9.11,23.46,2.69,35.68,0.02c0,8.15,0,15.18,0,22.47c-2.35,0.25-4.55,0.48-5.75,0.61
		c-9.44-2.05-17.97-3.91-26.71-5.81c-0.69-0.84-1.63-1.98-2.56-3.11C369.71,475.41,369.49,470.68,369.27,465.95z"/>
	<path fill="#F7F3E8" d="M856.14,899.92c18.25-13.29,36.5-26.58,54.75-39.87c0.63,3.61,1.25,7.22,1.73,9.99
		c-12.44,8.93-23.85,17.12-35.26,25.32c0.36,0.46,0.71,0.93,1.07,1.39c-2.67,1.89-5.33,3.78-8.45,5.98
		c-5.33,1.69-11.76,2.6-15.28,9.09c-1.86,0-3.79,0-6.05,0c-0.67-1.91-1.33-3.77-1.98-5.62c0,0-0.01,0-0.01,0.01
		c0.53,0.16,1.06,0.33,1.8,0.55c0.24-0.79,0.41-1.34,0.57-1.89c0.44-0.32,0.88-0.63,1.32-0.95c1.61,0,3.23,0,5.18,0
		C855.76,902.41,855.95,901.17,856.14,899.92z"/>
	<path fill="#D5CEC0" d="M795.2,610.79c1.33-1.24,2.66-2.49,3.99-3.73c4.85-2.27,9.7-4.55,16.61-7.79
		c15.2-3.77,31.31,3.29,47.89,6.39c-0.53,1.05-1.06,2.09-1.59,3.14c-0.41,0.83-0.82,1.66-1.24,2.49c-0.94,0.93-1.88,1.86-2.82,2.79
		l0.08-0.05c-0.69,0.35-1.39,0.7-2.08,1.04l0.08-0.05c-2.03,1.02-4.06,2.03-6.09,3.05l0.08-0.05c-0.69,0.35-1.38,0.69-2.07,1.04
		l0.07-0.05c-1.87,0.44-3.74,0.87-5.61,1.31c-0.41,0.71-0.82,1.41-1.23,2.12l0.02,0.27c-0.36,0.45-0.72,0.9-1.08,1.34
		c-1.32-1.2-5.33,2.78-4.57-2.58c1.26-0.71,2.59-1.47,4.31-2.44c-3.92-1.35-7.28-2.51-10.64-3.67c8.23,0.54,14.72-3.56,21.12-7.89
		c0.37-0.27,0.74-0.54,2.68-1.95c-2.25,0.91-2.74,1.11-3.23,1.31c-9.53,1.11-18.93,1.14-24.82-2.71c0.68,0.05,0.36,2.32-0.67,5.11
		c-2.83-0.83-6.37,2.67-7.67-0.79c-5.13,0.29-9.57,0.54-14.2,0.8c0.11,1.63,0.21,3.04,0.37,5.36
		C799.97,613.16,797.59,611.97,795.2,610.79z"/>
	<path fill="#D5CEC0" d="M269.14,535.72c-1.38,0.12-2.76,0.24-4.14,0.35c-0.25-0.45-0.5-0.89-0.79-1.39
		c0.77-0.4,1.28-0.67,1.79-0.94c0.36-0.55,0.71-1.09,1.07-1.64c9.07-3.59,18.15-7.17,26.59-10.51c11.76,1.87,23.1,3.68,34.44,5.49
		c1.08,1.16,2.15,2.32,3.88,4.19c-6.68,3.19-13.35,6.36-20.02,9.54c-0.28,0.1-0.56,0.21-0.84,0.31c0,0-0.03,0.01-0.03,0.01
		c-5-0.84-10.01-1.69-15.01-2.53c3.16,0,6.33,0,9.79,0c-1.53-7.47,6.06-3.7,7.69-7.59c-2.02-0.64-3.86-1.23-6.07-1.93
		c0,1.2,0,1.94,0,3.03c-1.63-0.84-2.9-1.49-4.04-2.08c-1.6,0.68-2.95,1.26-4.3,1.83c-0.7-0.34-1.4-0.68-2.1-1.02
		c-7.97,1.02-15.94,2.03-23.91,3.05c-1.14,0-2.27,0-3.61,0C269.41,534.51,269.28,535.12,269.14,535.72z"/>
	<path fill="#D5CEC0" d="M729.11,903.08c-0.7-2.18-1.4-4.35-2.01-6.26c-2.73-0.7-4.94-1.27-7.16-1.85c6.84-7.8,15.11-8.3,24.17-4.76
		c0.15,0.38,0.3,0.76,0.54,1.37c0.4-0.55,0.65-0.88,0.89-1.21c1.19,0.28,2.38,0.56,3.57,0.84c0.88,1.2,1.76,2.41,2.68,3.67
		C744.11,897.66,736.61,900.37,729.11,903.08z"/>
	<path fill="#D5CEC0" d="M669.1,941.11c14.45-10.13,28.87-20.28,43.36-30.35c2.86-1.99,5.94-3.67,10.51-6.46
		c0.08,0.02,2.08,0.4,4.08,0.78C707.73,917.09,688.42,929.1,669.1,941.11z"/>
	<path fill="#D5CEC0" d="M575.1,1000.17c15.01-9.35,30.02-18.71,45.04-28.06C606.96,984.41,591.29,992.72,575.1,1000.17z"/>
	<path fill="#161110" d="M862.09,608.8c0.53-1.05,1.06-2.09,1.59-3.14c6.4,18.61,11.36,37.49,10.41,57.43l0.04,0.04
		C871.36,644.75,870.7,625.89,862.09,608.8z"/>
	<path fill="#D5CEC0" d="M645.1,957.14c6.53-7.55,14.51-12.94,24.02-16.04C661.11,946.45,653.1,951.79,645.1,957.14z"/>
	<path fill="#161110" d="M868.21,668.22c-4.53,2.55-9.05,5.1-13.58,7.65c-0.26-0.36-0.53-0.72-0.79-1.08
		c4.76-2.22,9.53-4.43,14.29-6.65L868.21,668.22z"/>
	<path fill="#161110" d="M854.63,675.86c-3.48,1.78-6.96,3.56-10.43,5.34l-0.07-0.07c3.24-2.11,6.47-4.23,9.71-6.34
		C854.11,675.15,854.37,675.51,854.63,675.86z"/>
	<path fill="#6B778D" d="M613.44,771.6c1.24,1.84,2.48,3.68,3.71,5.52c-5.39-1.21-10.78-2.41-17.74-3.97
		c4.49,3.01,7.76,5.19,12.59,8.42c-13.37,10.25-25.72,19.72-38.07,29.19c-0.28-0.28-0.56-0.55-0.83-0.83
		c-2.38-2.23-4.75-4.46-7.13-6.69l0-0.01c-0.91-1.03-1.63-2.48-2.77-3.01c-43.56-20.22-90.9-25.66-137.24-35.05
		c-4.23-0.77-8.46-1.54-12.68-2.31c-0.03,0.09-0.06,0.18-0.09,0.27c-4.16-0.7-8.32-1.4-12.48-2.1
		c-49.47-8.59-98.94-17.18-148.4-25.78c-11.35-1.45-22.69-2.9-34.04-4.34c3.26-0.59,6.53-1.17,12.49-2.24
		c-3.99-0.51-5.25-0.67-7.54-0.96c14.89-6.63,28.91-12.87,42.92-19.1c44.77,5.49,89.84,9.3,134.26,16.86
		c71.62,12.19,144.25,20.39,212.89,46.46L613.44,771.6z"/>
	<path fill="#57595F" d="M420.27,569.13c-2.07,2.98-4.13,5.96-6.2,8.94c0,0,0.06,0.06,0.06,0.06c0.36-26.63,0.72-53.27,1.08-79.9
		c9.83,2.23,19.66,4.47,29.91,6.8c-4.05,5.37-7.83,10.38-10.87,14.41c11.09,2.72,21.34,5.23,32.75,8.03
		c-1.82-3.86-3.21-6.8-4.73-10.01c0.88-0.59,2.03-1.35,3.43-2.28c1.68,1.9,3.19,3.62,4.71,5.32c2.64,0.82,5.27,1.67,7.92,2.52
		c2.75-1.62,5.48-3.23,9.38-5.52c-1.66,4.86-2.64,7.74-3.62,10.62c-0.71,0.88-1.42,1.76,0.04-0.05c-0.56,2.3-0.29,1.19-0.02,0.08
		c10.64,1.69,21.28,3.37,31.93,5.06c0.17,0.05,0.33,0.11,0.5,0.16c-0.12-0.1-0.24-0.2-0.36-0.3c-1.78-4.23-3.56-8.47-5.33-12.7
		c0.16-0.15,0.31-0.3,0.46-0.46c6.23,7.03,13.9,9.81,24.38,7.03c0.99-0.51,3.24-1.69,6.87-3.57c-2.59,5.9-4.53,10.32-6.47,14.74
		c-0.06,0.14-0.12,0.28-0.18,0.43c0.08-0.13,0.15-0.25,0.23-0.38c10.42,3.18,20.48,8.27,31.92,6.04c0.34,0.32,0.69,0.64,1.03,0.96
		c0.14,0.07,0.28,0.13,0.42,0.2c-0.12-0.08-0.24-0.17-0.37-0.25c-0.32-0.35-0.63-0.69-0.95-1.04c-2.31-5.04-4.62-10.09-6.93-15.13
		c10.5,8.61,21.2,13.12,33.57,3.91c0.19,0.18,0.37,0.35,0.56,0.53c-2.19,3.4-4.38,6.8-6.65,10.33c9.81,11.84,25.03,2.82,35.37,10.43
		c0.11,0.39,0.22,0.77-0.02-0.06c0.56,0.65,0.3,0.35,0.03,0.04c-1.84-4.3-3.68-8.59-5.75-13.45c6.78,1.42,13.5,2.83,19.74,4.14
		c3.67-2.47,6.87-4.62,13.67-9.2c-8.03,11-13.41,18.36-18.79,25.73c-1.47,0-2.94,0-9.38,0c5.87,1.63,6.96,1.93,8.04,2.23
		c0.17,4.49,2.98,1.95,4.82,2.1c0.51-1.61,0.93-2.97,1.61-5.12c12.16,13.97,27.92,3.67,42.5,10.19c-4.6-8.89-7.85-15.17-12.95-25.04
		c11.59,10.66,21.67,11.34,32.1,5.15c0.21,0.14,0.41,0.3,0.6,0.46c-2,3.21-4.01,6.42-6.26,10.03c9.05,11.3,22.91,4.38,35.58,12.13
		c-6.37-11.56-10.98-19.92-15.58-28.28c6.95,0.81,13.9,1.62,21.72,2.52c-0.92,12.64-1.78,24.53-2.64,36.42
		c-0.24,0.33-0.49,0.67-0.1,0.13c-0.1,0.68-0.04,0.24,0.03-0.19c0.71,5.42,1.74,10.82,2.06,16.26c1.08,18.59,1.91,37.2,2.84,55.8
		c-1.32,5.49-2.65,10.97-4.48,18.57c-4.04-4.53-7.41-8.31-11.38-12.77c4.31-4.02,8.12-7.57,12.13-11.31
		c-1.43-1.7-2.47-2.93-3.17-3.76c-3.11-0.22-5.69-0.4-8.27-0.58c1.52-16.01,15.85-37.1-16.29-39.49
		c-14.17-1.05-28.25-3.18-42.38-4.81c1.17-1.96,2.35-3.92,3.52-5.88c1.47-0.7,2.94-1.4,4.48-2.13c8.95,2.29,17.82,4.57,28.52,7.31
		c-6.02-11.12-11.02-20.34-15.81-29.18c-6.01,7.89-10.95,14.39-15.89,20.88c-14.84,5.55-21.73-3.92-27.91-14.75
		c0,0,0.04-0.09,0.04-0.09c-0.33-0.33-0.66-0.67-1-1l0,0c-0.67-1-1.35-2-2.02-3.01l0.03,0.02c-0.34-0.68-0.68-1.35-1.02-2.03
		l0.02,0.02c-0.34-0.34-0.69-0.69-1.03-1.03l0.05,0.04c-0.28-0.28-0.56-0.57-0.83-0.85c-6.73-0.41-12.33,1.55-15.98,7.61
		c-8.7,5.96-17.35,16.31-26.27,0.27c-0.32-0.69-0.64-1.38-0.96-2.06l0.01,0.02c-0.34-0.67-0.67-1.34-1.01-2.01l0,0.01
		c-0.67-1.34-1.34-2.67-2-4.01l0.02,0.01c-0.34-0.34-0.68-0.68-1.01-1.01l0.02,0.01c-0.35-0.34-0.69-0.69-1.04-1.03l0.04,0.05
		c-0.48-0.68-0.95-1.36-1.43-2.04c-2.5-2.97-5.01-5.93-7.72-9.15c-1.41,1.53-3.1,3.36-4.78,5.19c-0.17-0.2-0.33-0.41-0.52-0.61
		c-0.19,0.2-0.35,0.4-0.52,0.6l0.01-0.02c-0.34,0.67-0.67,1.35-1.01,2.02l0.02-0.03c-0.34,0.34-0.68,0.68-1.03,1.02l0.03-0.01
		c-0.67,0.67-1.34,1.34-2.01,2.01l0-0.01c-0.33,0.67-0.67,1.34-1,2c0,0,0,0,0,0c-0.33,0.33-0.66,0.67-1,1c0,0,0.02,0.07,0.02,0.07
		c-7.09,3.04-13.36,10.08-22.2,4.52c0,0,0.13-0.09,0.13-0.09c-0.34-0.5-0.67-1.01-1.01-1.51l0,0.02c-0.67-1.34-1.34-2.67-2-4.01
		l0.01,0.01c-0.34-0.34-0.67-0.67-1.01-1.01l0.01,0.01c-0.34-0.67-0.67-1.34-1.01-2.01l0,0.01c-0.34-0.67-0.67-1.34-1.01-2.01
		l0.02,0.02c-0.34-0.34-0.68-0.68-1.03-1.02l0.03,0.03c-0.34-0.68-0.68-1.36-1.02-2.04l0.02,0.03c-0.35-0.75-0.71-1.49-1.06-2.24
		c-1.77-2.35-3.53-4.7-5.47-7.27c0.76-2.98,1.38-6.19-3.2-7.44c-1.81,1.08-3.72,2.21-5.88,3.5c2.13,1.4,3.87,2.55,4.98,3.28
		c-3.09,4.07-6.17,8.14-9.25,12.2c-0.17-0.22-0.34-0.43-0.53-0.64c-0.19,0.21-0.36,0.41-0.53,0.62l0,0c-0.33,0.66-0.67,1.33-1,1.99
		l0,0c-0.33,0.33-0.66,0.67-1,1l0.02,0.08c-8.08,8.21-15.87,9.65-23.13-1l0.05-0.07c-0.33-0.34-0.67-0.67-1-1.01l0,0
		c-0.35-0.79-0.71-1.58-1.06-2.37c-5.77-3.95-3.46-15.88-12.62-15.27c-10.93,0.73-11.97,12.97-20.13,20.19
		c13,0.6,23.99,1.1,34.98,1.61c0.58,1.02,1.16,2.04,1.41,2.48c-1.39,1.49-2.34,2.5-3.29,3.52c-19.66-3.77-39.32-7.55-58.98-11.3
		c-5.06-0.96-8.79,0.18-9.18,6.21C420.21,569.2,420.27,569.13,420.27,569.13z"/>
	<path fill="#F7F3E8" d="M672.13,707.24c13.08,7.48,32.65,5.69,36.85,25.83c-1.73-1.53-3.47-3.06-6.86-6.05
		c-13.3,7.2-27.12,14.69-40.94,22.17c-2.4-2.26-4.52-4.95-7.24-6.73c-30.42-19.93-66.08-24.04-100.33-30.84
		c-61.64-12.25-123.8-22.01-185.9-31.82c-16.72-2.64-33.93-7.1-59.19,0.07c4.71-0.54,1.27-0.14-2.46,0.28
		c1.97-2.06,3.48-3.64,4.98-5.22c32.96-19.31,69.13-17.17,105.19-15.78c-4.89,0-9.78,0-14.67,0c10.21,1.65,20.47,2.38,30.71,3.35
		c80.41,7.55,159.09,24.08,236.81,45.61c0.42,0.54,0.84,1.07,1.6,2.04C671.34,708.82,671.74,708.03,672.13,707.24z"/>
	<path fill="#F7F3E8" d="M263.38,706.27c48.12-23.81,97.18-11.38,146.3-4.3c65.45,9.43,130.45,21.01,194.56,37.28
		c15.9,4.04,31.98,8.3,45.35,18.76c-7.49,3.71-14.98,7.42-22.42,11.1c0.72,2.31,1.19,3.83,1.68,5.39c-1.93,1.15-3.62,2.17-5.44,3.25
		c-0.2,1.49-0.4,2.95-0.6,4.42c-3.12-3.52-6.24-7.05-9.37-10.57c0,0-0.16,0.33-0.16,0.33c-3.62-1.94-7.06-4.42-10.9-5.75
		c-56.79-19.6-116.11-27.81-174.93-37.9c-54.1-9.28-108.03-20.47-163.28-21.15C263.9,706.85,263.64,706.56,263.38,706.27z
		 M432.93,721.62c0.06-0.45,0.13-0.9,0.19-1.35c-47.82-7.27-95.65-14.54-143.47-21.81c-0.06,0.44-0.12,0.88-0.19,1.32
		C337.28,707.06,385.11,714.34,432.93,721.62z"/>
	<path fill="#BA8146" d="M499.2,950.02c-53.95-11.83-107.26-23.52-160.91-35.29c0-14.19,0-28.79,0-44.63
		c53.95,11.2,107.47,22.32,160.91,33.42C499.2,919.65,499.2,934.77,499.2,950.02z M492.73,909.37c0.09-0.45,0.19-0.9,0.28-1.35
		c-39.3-8.45-78.61-16.89-117.91-25.34c-0.16,0.77-0.32,1.54-0.48,2.31C413.99,893.12,453.36,901.25,492.73,909.37z"/>
	<path fill="#D5CEC0" d="M208.11,806.09c-5.29-0.78-10.59-1.56-16.08-2.37c1.4-11.35-2.22-19.1-11.77-21.34
		c-0.93-6.91-1.71-12.63-2.48-18.35c2.46,0.67,4.93,1.34,7.39,2.01c24.05,4.36,48.09,8.72,72.14,13.08
		c-5.58-0.62-11.17-1.24-19.04-2.12c16.93,19.05,39.73,21.07,58.7,32.61c0.99-5.43,1.54-8.46,1.73-9.48
		c23.01-0.01,39.41,22.68,72.65,13.8c8.46,0.47,24.13,5.73,36.95,18.29c8.32-1.78,16.52-3.54,25.04-5.36
		c1.32,3.67,2.47,6.87,3.82,10.63c12.09-3.72,23.88-7.35,36.36-11.19c-2.28,4.98-4.04,8.81-5.67,12.39
		c2.11,2.78,3.78,4.98,5.51,7.26c14.32-2.97,28.57-5.92,42.81-8.87c0.4,3.65,0.8,7.29,1.2,10.94c-8.7,11.74-21.84,1.43-32.35,5.81
		c1.35,2.52,2.35,4.38,4.55,8.48c-44.38-9.22-86.63-18-128.87-26.78c0.07-0.42,0.15-0.84,0.22-1.27c1.58,0.22,3.16,0.43,5.01,0.69
		c5.98-5.52,11.24,2.56,17.19,1.15c0.69,0.51,1.38,1.02,0.04,0.03c1.63,0.38,0.78,0.18-0.06-0.01c-6.29-8.26-14.69-6.85-23.18-5.32
		c-0.91,1.38-1.7,2.6-1.93,2.94c-5.09-0.92-9.69-1.76-16.61-3.01c0.81,0.65-0.47-0.38-1.03-0.83c-4.17-0.56-7.44-1-10.74-1.47
		c-0.48-1.57-0.94-3.12-1.17-3.91c-10.25-4.3-19.85-8.32-28.78-12.07c-3.04,1.45-5.43,2.58-7.2,3.42c2.65,2.18,5.34,4.39,8.62,7.08
		C269.19,817.16,238.65,811.63,208.11,806.09z"/>
	<path fill="#BA8146" d="M180.16,881.64c0-14.36,0-28.16,0-43.59c50.75,10.49,101.07,20.89,151.57,31.32c0,14.88,0,29.49,0,44.62
		C281.17,903.2,230.85,892.46,180.16,881.64z M293.78,902.27c0.07-0.34,0.14-0.68,0.21-1.02c-22.82-4.86-45.64-9.72-68.46-14.59
		c-0.09,0.42-0.18,0.85-0.26,1.27C248.11,892.71,270.94,897.49,293.78,902.27z"/>
	<path fill="#D5CEC0" d="M661.18,749.19c13.82-7.48,27.64-14.97,40.94-22.17c3.39,2.99,5.13,4.52,6.86,6.05
		c5.3,17.96,6.42,36.38,5.94,54.97c-2.4,0.69-4.81,1.37-7.83,2.24c-1.03-7.31-2.12-15.08-3.21-22.85c-0.3,0.04-0.6,0.08-0.9,0.12
		c0.99,8.16,1.97,16.33,2.97,24.6c-13.04,6.42-25.88,12.75-39.31,19.36c-0.31-3.33-0.53-5.75-0.86-9.26
		c-0.63,4.37-1.09,7.58-1.55,10.78c-3.02-19.98-0.65-41.37-15.23-58.34c-3.72-2.11-7.44-4.22-11.15-6.33c0,0,0.07,0.17,0.07,0.17
		c-1.02-0.43-2.03-0.86-3.05-1.29c0,0,0.13,0.13,0.13,0.13c-3.39-1.36-6.78-2.72-10.17-4.07c0,0,0.13,0.18,0.13,0.18
		c-7.25-2.99-14.24-7.24-21.78-8.76c-56.91-11.45-113.79-23.1-170.96-33.15c-33.66-5.91-67.41-12.7-101.95-11.5
		c-12.09,0.95-24.18,1.9-36.26,2.85c-0.98,0.16-1.96,0.33-2.93,0.49c0,0,0.1-0.25,0.1-0.25c-1.38-0.71-2.75-1.43-4.13-2.14
		c0,0-0.07,0.06-0.07,0.06c0.71-0.35,1.41-0.7,2.12-1.05l-0.1,0.1c0.35-0.64,0.7-1.27,1.06-1.91l0.12-0.24c0,0,0.26,0.07,0.26,0.07
		c9.9-1.7,19.88-5.2,29.7-4.82c89.74,3.51,177.12,22.66,264.38,41.9c24.3,5.36,49.84,9.21,69.66,26.93
		c2.57,1.09,5.13,2.19,10.23,4.36c-2-3.9-2.61-5.08-3.22-6.27C661.17,749.82,661.16,749.51,661.18,749.19z"/>
	<path fill="#6B778D" d="M510.85,520.34c1.78,4.23,3.56,8.47,5.33,12.7l-0.14,0.14c-10.64-1.69-21.28-3.37-31.92-5.06
		c0,0-0.02-0.02-0.02-0.02c0.98-2.88,1.96-5.76,3.62-10.62c-3.89,2.29-6.63,3.9-9.38,5.52c-2.65-0.84-5.28-1.7-7.92-2.52
		c-1.52-1.69-3.04-3.41-4.71-5.32c-1.39,0.93-2.55,1.7-3.43,2.28c1.52,3.21,2.91,6.15,4.73,10.01c-11.41-2.8-21.66-5.31-32.75-8.03
		c3.04-4.03,6.82-9.04,10.87-14.41c-10.25-2.33-20.08-4.56-29.91-6.8c44.31,7.1,88.59,14.41,132.95,21.24
		c37.72,5.81,75.54,11.01,113.29,16.62c14.25,2.12,28.43,4.67,42.64,7.02c0.73,0.29,1.46,0.58,2.19,0.86
		c2.59,0.4,5.18,0.8,7.77,1.19c4.61,8.36,9.21,16.72,15.58,28.28c-12.67-7.75-26.53-0.83-35.58-12.13
		c2.25-3.61,4.26-6.82,6.26-10.03c0.31-0.68,0.62-1.36,0.93-2.05c0.32-0.34,0.64-0.68,0.96-1.02c0.33-0.34,0.66-0.67,0.99-1.01
		c0.23-0.39,0.47-0.78-1.13,1.88c1.2-2.91,1.04-2.52,0.88-2.13c-0.33,0.34-0.65,0.68-0.98,1.02c-0.33,0.33-0.67,0.65-1,0.98
		c-0.41,0.62-0.83,1.25-1.25,1.87c-10.43,6.19-20.51,5.51-32.1-5.15c5.11,9.87,8.35,16.15,12.95,25.04
		c-14.58-6.53-30.34,3.77-42.5-10.19c-0.68,2.16-1.1,3.51-1.61,5.12c-1.84-0.15-4.65,2.39-4.82-2.1c0.5-0.15,1.01-0.31,1.52-0.47
		c0.86-0.25,1.72-0.49,4.58-1.31c-3-0.39-3.86-0.5-4.72-0.62l-0.04,0.16c5.38-7.37,10.76-14.74,18.79-25.73
		c-6.8,4.58-10,6.73-13.67,9.2c-6.24-1.31-12.97-2.72-19.74-4.14c2.08,4.86,3.92,9.15,5.75,13.45l-0.02,0.02
		c-10.34-7.6-25.56,1.41-35.37-10.43c2.27-3.52,4.46-6.93,6.65-10.33c0.33-0.33,0.65-0.66,0.98-0.99c0.33-0.33,0.67-0.67,1-1
		c0.32-0.35,0.64-0.69,0.96-1.04c0.09-0.24,0.19-0.47,0.27-0.73c-0.26,0.07-0.5,0.16-0.73,0.26c-0.34,0.32-0.69,0.64-1.03,0.96
		c-0.33,0.33-0.67,0.66-1,1c-0.34,0.34-0.67,0.67-1.01,1.01c-12.37,9.21-23.06,4.69-33.57-3.91c2.31,5.04,4.62,10.09,6.93,15.13
		c0,0-0.13,0.13-0.13,0.13c-11.44,2.22-21.5-2.87-31.92-6.04l-0.05-0.05c1.94-4.42,3.88-8.84,6.47-14.74
		c-3.62,1.88-5.88,3.05-6.87,3.57c-10.48,2.78-18.14,0-24.38-7.03c-0.24-0.1-0.47-0.21-0.73-0.29
		C510.65,519.85,510.75,520.1,510.85,520.34z"/>
	<path fill="#57595F" d="M496.98,959.04c-1.34,7.16-2.68,14.33-4.19,22.43c-36.17-8.15-72.47-16.33-108.76-24.51
		c-1.29-0.79-2.49-2-3.89-2.31c-40.02-8.92-80-18.02-120.11-26.51c-24.51-5.19-49.23-9.44-73.85-14.11
		c-3.07-0.39-6.14-0.79-10.35-1.33c0-5.94,0-11.8,0-17.65c19.79,3.99,39.57,7.98,59.36,11.96c86.01,18.64,172.02,37.28,258.06,55.91
		c0.74-1.27,1.45-2.52,2.15-3.77C495.92,959.12,496.45,959.08,496.98,959.04z"/>
	<path fill="#4F321E" d="M569.62,951.23c0-14.03,0-22.95,0-32.43c52.21-32.23,104.8-64.7,158.11-97.61c0,10.62,0,20.44,0,31.83
		C676.27,884.99,624.08,917.41,569.62,951.23z"/>
	<path fill="#BA8146" d="M738.04,518.72c-0.51,7.52-1.03,15.03-1.6,23.39c-29.42-4.43-58.27-8.77-87.13-13.11
		c28.15,3.62,56.3,7.24,84.45,10.85c0.1-0.73,0.2-1.45,0.3-2.18c-107.36-16.81-214.72-33.62-322.07-50.43
		c-0.54-1.32-1.09-2.64-1.63-3.95c0.18-3.26,0.37-6.53,0.59-10.51c108.4,16.35,216.28,32.63,323.17,48.75
		C735.79,520.33,736.91,519.53,738.04,518.72z"/>
	<path fill="#F7F3E8" d="M516.17,837.08c-14.25,2.95-28.49,5.9-42.81,8.87c-1.73-2.28-3.4-4.48-5.51-7.26
		c1.64-3.58,3.39-7.41,5.67-12.39c-12.47,3.84-24.26,7.47-36.36,11.19c-1.35-3.76-2.5-6.96-3.82-10.63
		c-8.52,1.82-16.71,3.58-25.04,5.36c-12.82-12.56-28.49-17.82-36.95-18.29c-33.24,8.88-49.64-13.81-72.65-13.8
		c-0.19,1.02-0.74,4.04-1.73,9.48c-18.98-11.54-41.77-13.56-58.7-32.61c7.87,0.88,13.46,1.5,19.04,2.12
		c0.23-0.03,0.47-0.05,0.71-0.04c1.43,0.35,2.86,0.69,4.29,1.04l0.39-0.02c0,0,0.39,0.01,0.39,0.01
		c10.33,1.67,20.65,3.35,30.98,5.02c45.13,8.34,90.37,16.1,135.34,25.21c30.3,6.13,60.95,11.28,89.89,22.88
		c-0.19,0.68-0.38,1.35-0.56,2.03C517.89,835.86,517.03,836.47,516.17,837.08z"/>
	<path fill="#F7F3E8" d="M185.18,766.04c-2.46-0.67-4.93-1.34-7.39-2.01c-1.67-2.12-3.35-4.24-5.17-6.54
		c3.26-1.46,7.43-3.33,11.6-5.2c0,0,0-0.02,0-0.02c55.49-4.34,108.38,12.08,162.03,21.28c61.55,10.56,123.53,19.87,183.37,38.67
		c14.78,4.65,26.14,13.36,23.79,37.02c-2.47-13.65-6.18-21.03-15.46-23.56c-2.25-4.44-4.97-3.44-7.85-0.69
		c-0.3,0.08-0.6,0.12-0.91,0.13c-1.35,0.69-2.69,1.39-4.04,2.08c0,0,0.07-0.07,0.07-0.07c-0.38,0.29-0.75,0.58-1.13,0.87l-0.1,0.25
		c0,0-0.27-0.03-0.27-0.03c-1.24-0.41-2.49-0.81-3.93-1.29c0.77-1.9,1.23-3.05,1.99-4.94c-108.66-26.97-218.21-46.88-328.44-62.78
		c-1.06,2.75-1.63,4.22-2.03,5.26C188.95,765.1,187.06,765.57,185.18,766.04z"/>
	<path fill="#4F321E" d="M844.89,781.29c1.33-0.66,2.65-1.32,4.86-2.42c0.24,4.36,0.44,8.12,0.37,6.92
		c5.24-23.16,35.84-21.71,48.56-39.11c9.86,50.86,6.71,96.04-53.62,113.01c0-24.19,0-50.9,0-77.61
		C844.94,781.83,844.89,781.57,844.89,781.29z"/>
	<path fill="#BA8146" d="M494.99,882.59c0,4.79,0,9.58,0,14.52c-105.12-21.47-209.79-42.85-315.74-64.5c0-3.88,0-8.47,0-13.04
		C284.5,840.58,389.75,861.59,494.99,882.59z"/>
	<path fill="#F7F3E8" d="M400.71,761.02c4.16,0.7,8.32,1.4,12.48,2.1c0.03-0.09,0.06-0.18,0.09-0.27c4.23,0.77,8.46,1.54,12.68,2.31
		c1.38,0.69,2.69,1.69,4.15,2.04c45.6,10.83,93.07,14.61,135.86,36.03c0,0,0,0.01,0,0.01c2.02,2.65,4.03,5.3,6.05,7.96
		c2.28,13.6,4.56,27.2,6.84,40.8c-2.42-12.66-4.84-25.33-7.26-37.96c-3.36,1.9-5.74,3.25-7.85,4.45c-0.36,1.82-0.66,3.32-0.96,4.81
		c-2.73-5.86-4.54-12.6-12.64-13.39c-1.09-0.97-2.01-2.41-3.28-2.86c-48.64-17.24-99.54-24.62-149.92-34.21
		c-34.31-6.53-68.75-12.42-103.13-18.6c-35.38-6.88-70.68-14.34-106.49-14.07c20.07-12.71,42.15-5.6,63.84-3.99
		C301.01,744.47,350.86,752.75,400.71,761.02z"/>
	<path fill="#57595F" d="M419.86,594.99c35.37,6.03,70.54,13.41,107.84,14.27c-1.95,8.39-3.39,14.61-4.83,20.84
		c-0.16-2.82-0.33-5.64-0.83-14.17c-4.95,18.75-8.43,31.96-11.31,42.88c-6.1,2.78-9.8,4.46-13.49,6.14
		c-31.12-3.54-62.24-7.09-94.94-10.81c5.45-18.98,11.08-38.62,16.72-58.26c0,0-0.02,0.15-0.02,0.15c0.34-0.35,0.68-0.7,1.03-1.05
		L419.86,594.99z M424.21,601.55c-4.24,35.53,25.05,35.3,45.76,42.88c4.68,1.71,14.51-1.73,15.98-9.83
		c11.56-5.97,22.5-11.62,33.66-17.38C515.88,612.35,427.34,599.04,424.21,601.55z"/>
	<path fill="#BA8146" d="M744.25,555.73c0-2.47,0-4.94,0-7.07c17.6-0.5,30.73,0.54,29.01,25.57c-2.89,42.19-1.42,84.68-2.09,127.04
		c-0.05,3.01-2.67,5.98-4.09,8.96c-0.1-0.98-0.2-1.96-0.31-2.95c-0.69,0.4-1.36,0.8-2.23,1.33c-1.62-6.28,0.18-14.93-10.54-13.34
		c-0.7-1.69-1.4-3.38-2.1-5.07c0.1-6.64,0.47-13.29,0.25-19.92c-0.51-15.26-1.3-30.51-1.98-45.76c0-12.16,0-24.32,0-36.49
		c-0.89,31.19-0.84,62.36-1.01,93.52c-0.01,2.23-1.67,4.46-2.56,6.68c-0.79-0.55-1.57-1.1-2.36-1.64
		C744.24,642.98,744.25,599.35,744.25,555.73z"/>
	<path fill="#BA8146" d="M773.28,512.2c-0.12,1.79-0.23,3.58-0.36,5.49c-9.09-0.73-18.02-1.45-26.95-2.17
		c-1.02-0.78-1.97-2.12-3.07-2.26c-22-2.79-44.01-5.44-66.02-8.14c-16.74-2.06-33.48-4.15-50.22-6.23
		c-1.16,0.03-2.34,0.24-3.46,0.07c-40.52-6.16-81.04-12.34-121.56-18.56c-29.37-4.5-58.73-9.06-88.1-13.59
		c21.46-15.1,43.43-2.77,64.51,0.17c89.26,12.45,178.28,26.65,267.38,40.24c2.21,0.34,4.36,1.05,6.02,1.46
		c5.24-11.47,11.63-4.11,17.55-1.81C770.43,508.66,771.85,510.43,773.28,512.2z"/>
	<path fill="#FEFEFE" d="M185.18,766.04c1.89-0.47,3.77-0.94,6.16-1.54c0.4-1.04,0.97-2.51,2.03-5.26
		c110.23,15.9,219.78,35.81,328.44,62.78c-0.76,1.89-1.22,3.03-1.99,4.94c1.44,0.47,2.68,0.88,3.93,1.29
		c-1.48,1.66-2.96,3.32-4.44,4.98c-28.95-11.6-59.6-16.75-89.89-22.88c-44.97-9.11-90.21-16.87-135.34-25.21
		c-10.33-1.67-20.65-3.35-30.98-5.02l-0.39-0.01c0,0-0.39,0.02-0.39,0.02c-1.43-0.35-2.86-0.69-4.29-1.04
		c-0.24-0.01-0.48,0-0.71,0.04C233.27,774.75,209.22,770.4,185.18,766.04z"/>
	<path fill="#BA8146" d="M180.52,814.05c18.21-16.27,36.95-2.81,54.51,0.52c90.08,17.04,179.86,35.7,270.54,53.95
		c-3.55,3.06-6.4,5.52-9.25,7.97C391.05,855.67,285.79,834.86,180.52,814.05z"/>
	<path fill="#BA8146" d="M799.28,702.49c5.92,0.99,11.84,1.97,18.86,3.14c-7.3,4.32-13.18,7.8-18.7,11.06c0,4.49,0,7.95,0,12.46
		c16.18,1.21,31.59,10.54,48.35,2.77c-0.56,0.4-1.12,0.79-1.68,1.19c-0.06,0.1-0.13,0.2-0.19,0.3c0.06-0.11,0.12-0.21,0.17-0.32
		c0.56-0.4,1.12-0.79,1.69-1.19c0.04-0.43,0.08-0.87,0.11-1.29c18.16,4.13,33.87-2.17,51.7-16.37c-2.96,5.78-3.35,6.54-3.87,7.54
		c2.05,0.48,3.65,0.86,5.25,1.23c-20.07,12.01-40.13,24.02-60.2,36.04c-0.94-7.5-7.35-7.01-12.28-7.86
		c-28.23-4.87-56.52-9.44-84.78-14.1c-0.06-1.53-0.69-4.11-0.08-4.44C762.11,722.47,780.7,712.5,799.28,702.49z"/>
	<path fill="#BA8146" d="M822.13,824.37c-24.24-4.16-48.47-8.33-73.2-12.58c0-15.39,0-30.65,0-47.4
		c24.52,4.88,48.93,9.74,73.34,14.6C822.22,794.12,822.17,809.25,822.13,824.37z M795.22,801.41c0-5.6,1.35-12.41-0.24-13.18
		c-5.93-2.88-12.81-3.78-20.08-5.62c-0.27,5.47-0.46,9.38-0.74,14.91C780.51,798.69,786.97,799.88,795.22,801.41z M752.37,801.68
		c-0.13,0.6-0.26,1.19-0.38,1.79c20.69,4.02,41.38,8.03,62.07,12.05c0.13-0.66,0.26-1.32,0.39-1.99
		C793.75,809.58,773.06,805.63,752.37,801.68z"/>
	<path fill="#57595F" d="M562.79,616.79c37.5,9.01,75.23,16.82,115.65,19.88c-6.4,22.11-12.3,42.49-18.2,62.86
		c-38.15-9.07-75.98-18.07-115.03-27.36c4.86-17.43,9.86-35.33,14.85-53.23l-0.05,0.12c0.35-0.35,0.69-0.71,1.04-1.06
		c0,0-0.02,0.01-0.02,0.01c0.67-0.37,1.35-0.75,2.02-1.12C563.04,616.9,562.79,616.79,562.79,616.79z M581.79,664.71
		c14.83,5.86,29.65,11.73,47.72,18.87c5.47-0.82,14.73-2.22,24.54-3.7c2.42-10.97,4.79-21.65,7.29-32.97c2.31-1.78,5.31-4.1,7-5.4
		c-30.62-6.37-61.67-12.94-92.78-19.22c-5.59-1.13-9.48,1.71-12.14,7C553.37,649.3,566.95,657.03,581.79,664.71z"/>
	<path fill="#BA8146" d="M403.03,606.57c-2,7.61-4.01,15.23-6.01,22.84c0.21-1.74,0.43-3.48,0.64-5.22c0-42.88,0-85.77,0-128.65
		c-0.11,0-0.22,0-0.34,0c0,42.89,0,85.77,0,128.66c-2.04,0.23-4.08,0.46-5.29,0.6c-0.87,3.5-1.34,5.36-3.63,14.55
		c0-12.87,0-18.24,0-23.61c-0.41,0.01-0.82,0.01-1.23,0.02c-0.47,7.96-0.94,15.93-1.44,24.39c-1.32-1.13-2.06-1.76-3.91-3.34
		c1.02,4.22,1.71,7.1,2.41,9.98c-1.1-0.05-2.21-0.1-3.64-0.16c0-51.96,0-103.61,0-155.66c7.53,0.88,14.88,1.75,22.52,2.65
		c0,1.79,0,3.4,0,5C403.09,534.61,403.06,570.59,403.03,606.57z"/>
	<path fill="#BA8146" d="M874.13,663.14c-0.78,0.54-1.55,1.08-2.33,1.62c-1.22,1.13-2.44,2.25-3.67,3.38
		c-4.76,2.22-9.53,4.44-14.29,6.65c-3.24,2.11-6.47,4.23-9.71,6.34c-8.06-0.63-16.11-1.27-24.17-1.9
		c-5.32-1.42-10.64-2.84-15.95-4.26c-6.17-1.58-12.34-3.17-19.33-4.96c3.52-19.81,7.02-39.52,10.52-59.22
		c2.39,1.18,4.77,2.36,7.69,3.81c-0.16-2.32-0.26-3.73-0.37-5.36c4.63-0.26,9.08-0.51,14.2-0.8c1.3,3.46,4.84-0.04,7.67,0.79
		c1.03-2.79,1.35-5.06,0.67-5.11c5.89,3.85,15.29,3.82,24.82,2.71c0.19,0.21,0.37,0.42,0.55,0.64c-6.41,4.33-12.9,8.43-21.13,7.89
		c-7.91-1.19-15.81-2.37-23.71-3.55c-0.14,0.98-0.28,1.97-0.42,2.95c7.38,1.61,14.75,3.22,22.13,4.82c-0.17,0.94-0.34,1.89-0.5,2.83
		c-8.28-0.77-16.55-1.54-24.83-2.3c-1.35-0.4-2.7-0.8-4.28-1.26c-1.23,5.19-2.89,9.8-3.33,14.52c-1.01,10.78-1.42,21.61-2.08,32.41
		c15.68,3.42,31.36,6.83,47.93,10.45c0-17.93,0-35.05,0-52.17c0.36-0.45,0.72-0.9,1.08-1.34c2.27-1.23,4.54-2.47,6.82-3.7
		c0,0-0.07,0.05-0.07,0.05c0.69-0.35,1.38-0.69,2.07-1.04c0,0-0.08,0.05-0.08,0.05c2.03-1.02,4.06-2.03,6.09-3.05
		c0,0-0.08,0.05-0.08,0.05c0.69-0.35,1.39-0.7,2.08-1.04c0,0-0.08,0.05-0.08,0.05c0.94-0.93,1.88-1.86,2.82-2.79
		c0.41-0.83,0.82-1.66,1.24-2.49C870.7,625.89,871.36,644.75,874.13,663.14z"/>
	<path fill="#BA8146" d="M218.69,653.23c23.41-11.16,46.81-22.32,72.74-34.68c-3.67,12.36-13.95,10.93-19.19,17.32
		c0.16,2.81,0.35,6.32,0.53,9.42c21.5,5.51,42.24,11.11,60.78-4.31c-1.18-3.51-2.34-6.95-3.82-11.35
		c15.38,2.54,29.89,4.93,44.9,7.41c-1.1,1.66-1.87,2.83-2.64,3.99l0.12,0c-0.68,0.34-1.37,0.68-2.05,1.02l0.04-0.03
		c-0.64,0.05-1.28,0.1-1.92,0.16c-15.76,8.22-31.52,16.43-47.28,24.65c0,0,0.02,0.02,0.02,0.02c-0.64,0.39-1.28,0.77-1.92,1.16
		c-0.32,0.14-0.65,0.28-0.97,0.41c-0.65-0.7-1.24-1.93-1.98-2.03C283.6,661.94,251.14,657.59,218.69,653.23z"/>
	<path fill="#4F321E" d="M778.16,704.39c0-29.75,0-58.37,0-86.98c-0.57-0.01-1.14-0.01-1.71-0.02c0,29.24,0,58.48,0,87.72
		c-0.62-0.01-1.23-0.02-1.85-0.03c0-50.43,0-100.86,0-152.47c5.71-1.77,11.82-3.67,18.31-5.69c5.87,41.95-3.98,82.88-10.08,124.29
		c3.54,0.94,6.52,1.73,10.3,2.73c0.42,7.55,0.84,15.09,1.26,22.62C788.92,699.22,784.05,701.56,778.16,704.39z M785.81,552.45
		c-0.11,0-0.22,0-0.33,0.01c0,6.69,0,13.39,0,20.08c0.11,0,0.22-0.01,0.33-0.01C785.81,565.84,785.81,559.15,785.81,552.45z"/>
	<path fill="#6B778D" d="M293.81,754.25c34.38,6.18,68.82,12.07,103.13,18.6c50.38,9.59,101.28,16.97,149.92,34.21
		c1.27,0.45,2.2,1.88,3.28,2.86c0,2.6,0,5.21,0,8.04c1.63-0.34,2.85-0.6,5.99-1.25c-3.45,2.1-5.24,3.19-1,0.61
		c-113.94-32.59-225.52-49.55-336.92-67.36c15.49,1.41,30.99,2.82,48.22,4.39c-2.58-2.03-3.96-3.11-5.33-4.19
		C272,751.52,282.91,752.88,293.81,754.25z"/>
	<path fill="#FEFEFE" d="M661.18,749.19c-0.02,0.32-0.01,0.63,0.02,0.95c-2.34,0.64-4.67,1.28-7.01,1.92
		c-19.81-17.72-45.36-21.58-69.66-26.93c-87.26-19.24-174.64-38.4-264.38-41.9c-9.82-0.38-19.8,3.12-29.7,4.82
		c6.86-4.37,13.72-8.74,20.58-13.12c-1.51,1.58-3.01,3.16-4.98,5.22c3.73-0.43,7.17-0.82,2.46-0.28
		c25.26-7.16,42.48-2.71,59.19-0.07c62.1,9.81,124.26,19.57,185.9,31.82c34.25,6.81,69.91,10.91,100.33,30.84
		C656.66,744.24,658.78,746.92,661.18,749.19z"/>
	<path fill="#F7F3E8" d="M693.06,630.28c-22.98-3.34-45.99-6.47-68.93-10.07c-20.56-3.23-40.69-8.25-59.54-16.54
		c1.62-25.23,18.35-14.45,30.24-11.77c38.73,8.7,77.78,14.73,117.39,17.37c2.34,0.16,4.58,1.87,6.86,2.86
		c-2.51,0.53-5.02,1.07,0.16-0.03c-55.22-3.32-102.07-13.61-149.35-20.73c46.03,12.32,92.38,22.23,141.86,26.27
		C704.08,622.81,698.57,626.54,693.06,630.28z"/>
	<path fill="#D5CEC0" d="M413.54,466.82c29.37,4.53,58.73,9.08,88.1,13.59c40.52,6.21,81.04,12.4,121.56,18.56
		c1.12,0.17,2.31-0.04,3.46-0.07c1,0.38,2.01,0.76,3.02,1.15c1.29-0.03,2.58-0.06,3.86-0.1c34.64,5.2,69.29,10.41,104.32,15.67
		c0.09,0.5,0.28,1.57,0.47,2.63c-0.15,0.13-0.25,0.29-0.3,0.48c-1.12,0.8-2.25,1.61-3.91,2.8c-106.9-16.13-214.78-32.4-323.17-48.75
		c-0.22,3.98-0.41,7.25-0.59,10.51C412.14,477.94,406.22,471.1,413.54,466.82z"/>
	<path fill="#D5CEC0" d="M180.52,814.05c105.26,20.81,210.53,41.62,315.79,62.44c-0.44,2.04-0.88,4.08-1.32,6.11
		c-105.24-21.01-210.49-42.02-315.74-63.03C179.68,817.73,180.1,815.89,180.52,814.05z"/>
	<path fill="#BA8146" d="M844.89,781.29c0,0.28,0.06,0.54,0.17,0.79c0,26.98,0,53.95,0,84.53c-35.18,1.02-68.28-11.35-105.34-13.93
		c6.56-3.53,10.48-5.64,14.41-7.76c3.01,0.87,5.97,2.06,9.04,2.57c17.97,2.96,35.96,5.75,53.95,8.6c1.79-0.1,3.59-0.19,5.86-0.32
		c1.26,1.51,2.79,3.35,5.61,6.73c0-28.93,0-55.8,0-83.12C834.54,780.09,839.71,780.69,844.89,781.29z"/>
	<path fill="#57595F" d="M740.97,882.39c-2.84-0.47-5.68-0.94-10.78-1.79c0-6,0-12.77,0-19.54c1.65,0.34,3.3,0.68,4.96,1.01
		c8.85,1.59,17.69,3.2,26.55,4.75c23.47,4.12,46.94,8.2,70.42,12.3c2.65,0.76,5.3,1.53,6.76,1.95c2.45-2.22,3.93-3.55,5.4-4.88
		c-0.43,7.34-0.85,14.67-1.28,22.01c-3.59,0.32-7.19,0.64-10.78,0.96c-24.05-4.69-48.09-9.38-72.14-14.06l0.03,0.02
		c-0.3-0.25-0.61-0.5-0.91-0.76C753.12,883.71,747.05,883.05,740.97,882.39z"/>
	<path fill="#4F321E" d="M727.59,803.08c0.62,3.91,1.25,7.82,1.88,11.8c-52.96,32.64-105.5,65.02-159.04,98.02
		c0-4.97,0-8.34,0-11.87c1.79-1.63,3.7-3.38,5.61-5.12c0,0,0,0.16,0,0.16c0.68-0.34,1.36-0.69,2.05-1.03l-0.05,0.05
		c0.35-0.35,0.7-0.7,1.05-1.06l-0.06,0.05c0.69-0.35,1.38-0.69,2.07-1.04c0,0-0.07,0.04-0.07,0.04c0.69-0.34,1.37-0.69,2.06-1.03
		c0,0-0.06,0.05-0.06,0.05c0.35-0.36,0.71-0.71,1.06-1.07l-0.07,0.06c0.69-0.35,1.38-0.69,2.07-1.04l-0.06,0.03
		c0.69-0.34,1.37-0.69,2.06-1.03l-0.06,0.05c0.35-0.35,0.7-0.7,1.05-1.05l-0.05,0.04c0.69-0.34,1.38-0.69,2.06-1.03l-0.06,0.03
		c1.35-0.68,2.7-1.35,4.05-2.03l-0.05,0.04c0.69-0.34,1.37-0.69,2.06-1.03c0,0-0.06,0.06-0.06,0.06c0.35-0.35,0.7-0.7,1.06-1.05
		c0,0-0.05,0.03-0.05,0.03c1.01-0.68,2.02-1.36,3.03-2.04c0,0-0.05,0.03-0.05,0.03c14.01-8.68,28.03-17.36,42.04-26.03l-0.02,0.03
		c1.01-0.68,2.02-1.36,3.03-2.05l-0.04,0.06c0.69-0.35,1.38-0.69,2.07-1.04l-0.06,0.03c1.01-0.68,2.02-1.36,3.03-2.04l-0.04,0.05
		c0.69-0.42,1.37-0.83,2.06-1.25C677.92,833.58,702.76,818.33,727.59,803.08z"/>
	<path fill="#BA8146" d="M843.15,775.13c-16.62-2.66-33.25-5.28-49.86-8c-20.34-3.33-40.67-6.72-60.98-10.16
		c-1.56-0.26-3.02-1.13-5.09-1.93c1.83-5.56-3.98-12.33,3.97-16.33c1.26,1.11,2.38,2.96,3.79,3.21
		c34.8,6.13,69.64,12.09,104.47,18.09c1.15,0.72,2.3,1.44,3.7,2.32C843.15,766.53,843.15,770.83,843.15,775.13z"/>
	<path fill="#BA8146" d="M540.19,961.39c-11.6-2.07-23.2-4.14-35.23-6.29c0-16.26,0-32.27,0-49.25c12.22,2.86,23.69,5.55,35.15,8.24
		C540.13,929.85,540.16,945.62,540.19,961.39z"/>
	<path fill="#F7F3E8" d="M560.06,618.95c-8.44,17-13.02,35.18-16.54,54.1c-2.34-0.41-4.7-0.82-7.75-1.35
		c6.16-20.46,12.08-40.82,18.54-61.01c1.55-4.85,5.45-7.12,11.14-4.85c37.46,14.95,76.84,19.98,116.74,22.37
		c4.11,0.25,9.82-0.37,8.98,6.89c-1.77,2.01-4.27,3.74-5.19,6.09c-7.82,19.93-15.34,39.98-22.96,59.99
		c5.44-21.02,10.88-42.03,16.87-65.15c-18.85-2.64-37.13-4.62-55.18-7.9c-18.34-3.34-36.44-8.04-54.69-11.92
		c-2.27-0.48-4.82,0.37-7.24,0.6c0,0,0.25,0.1,0.25,0.1c-0.67,0.37-1.35,0.75-2.02,1.12c0,0,0.02-0.01,0.02-0.01
		c-0.35,0.35-0.69,0.71-1.04,1.06L560.06,618.95z"/>
	<path fill="#F7F3E8" d="M420.21,569.2c1.14-1.05,2.29-2.1,3.43-3.15c0.24,1.44,0.48,2.88,0.91,5.5
		c42.49,10.25,85.79,16.44,129.36,19.76c-1.14,1.55-2.68,3.67-4.68,6.4c-4.46,0.18-5.25,4.65-6.93,8.34
		c-14.22-10.72-31.23-6.13-46.91-7.97c-27.19-3.18-53.69-9.06-80.11-17.34c1.39-3.24,3.19-7.42,4.99-11.6
		C420.27,569.13,420.21,569.2,420.21,569.2z"/>
	<path fill="#4F321E" d="M623.21,823.17c0.69,6.42,1.38,12.83,2.41,22.45c-12.14,7.56-26.06,16.23-40.98,25.52
		c-2.63-16.94-5.02-32.36-7.41-47.78c5.33-1.63,12.07,4.42,16.38-4.01C603.1,824.9,612.53,830.65,623.21,823.17z"/>
	<path fill="#57595F" d="M731.06,865.98c-49.4,31.72-98.8,63.44-148.97,95.66c-0.9-2.85-1.39-4.19-1.73-5.55
		c-0.36-1.42-0.57-2.87-0.83-4.21c49.09-30.77,98.06-61.46,147.03-92.16C728.06,861.81,729.56,863.89,731.06,865.98z"/>
	<path fill="#6B778D" d="M664.25,813.03c0.46-3.21,0.92-6.41,1.55-10.78c0.32,3.5,0.55,5.92,0.86,9.26
		c13.43-6.62,26.27-12.94,39.31-19.36c-1-8.28-1.99-16.44-2.97-24.6c0.3-0.04,0.6-0.08,0.9-0.12c1.09,7.77,2.19,15.54,3.21,22.85
		c3.02-0.86,5.43-1.55,7.83-2.24c4.37,0.48,3.34-3,3.13-4.96c-1.79-16.37-3.82-32.71-5.78-49.06c-0.41-1.96-0.82-3.93-1.24-5.89
		c0,0,0.04,0.05,0.04,0.05c0.23-1.25,0.46-2.5,0.37-2c13.56-7.74,25.94-14.8,39.01-22.26c-0.93-1.96-1.88-3.97-2.83-5.98
		c1.2,0.04,2.4,0.08,3.6,0.12c0,0-0.04-0.03-0.04-0.03c0.24,2.99,0.49,5.98,0.73,8.96c5.18,13.6-5.98,17.19-14.17,20.96
		c-13.66,6.3-17.1,16.31-14.36,29.89c-1.26,3.43-2.51,6.85-3.04,8.29c-1.29,10.51-2.35,19.06-3.4,27.61
		c-0.51,0.58-1.01,1.15-1.52,1.73c-0.65-0.52-1.31-1.03-2.46-1.94c-0.24,1.84-0.38,2.92-0.52,4c-15.42,9.29-30.84,18.59-48.2,29.04
		C664.25,819.56,664.25,816.29,664.25,813.03z"/>
	<path fill="#4F321E" d="M494.66,983.98c0.12,1.51,0.23,2.91,0.46,5.84c-89.96-20.3-179.11-40.42-268.25-60.54
		c0.05-0.42,0.09-0.83,0.14-1.25c3.48,0.48,6.97,0.96,11.68,1.61c0.13-0.34,0.69-1.76,1.18-3.01
		C325.22,945.84,409.55,964.83,494.66,983.98z"/>
	<path fill="#4F321E" d="M411.99,487.24c107.36,16.81,214.72,33.62,322.07,50.43c-0.1,0.73-0.2,1.45-0.3,2.18
		c-28.15-3.62-56.3-7.24-84.45-10.85c-54.2-8.36-108.4-16.72-162.6-25.06c-25.11-3.87-50.23-7.69-76.61-11.73
		C410.74,490.51,411.37,488.88,411.99,487.24z"/>
	<path fill="#57595F" d="M623.21,823.17c-10.69,7.48-20.11,1.72-29.6-3.82c-4.31,8.43-11.05,2.38-16.38,4.01
		c-1.1-4.2-2.2-8.4-3.3-12.59c12.35-9.47,24.7-18.94,38.07-29.19c-4.83-3.23-8.09-5.42-12.59-8.42c6.96,1.56,12.35,2.76,17.74,3.97
		C619.17,792.47,621.19,807.82,623.21,823.17z"/>
	<path fill="#F7F3E8" d="M518.04,668.73c0.41-5.35,0.13-10.86,1.32-16.03c10.21-44.32,10.24-43.84-34.75-48.88
		c-18.69-2.09-37.08-6.76-55.67-9.95c-2.88-0.49-6.05,0.7-9.08,1.12c0,0,0.16-0.01,0.16-0.01c-0.34,0.35-0.68,0.7-1.03,1.05
		c0,0,0.02-0.15,0.02-0.15c-5.34,16.06-10.69,32.12-16.03,48.18c2.32-11.75,4.64-23.5,6.96-35.25c-0.53-0.12-1.06-0.25-1.59-0.37
		c-3.9,12.91-7.79,25.81-12.17,40.33c3.25-1.18,4.72-1.72,6.2-2.26c-0.29,1.62-0.58,3.24-0.87,4.86c-1.01-0.76-2.01-1.51,0.03,0.02
		c-2.54-0.61-1.29-0.31-0.03-0.01c-0.11,1.25-0.22,2.5-0.34,3.75c-0.36,0.24-0.72,0.49-1.08,0.73c-2.12-1.74-4.24-3.48-6.16-5.05
		c6.3-21.84,12.41-43.03,18.52-64.22c0,0,0.12-0.12,0.12-0.12c14.98-6.32,27.01,5.36,40.8,6.72c25.65,2.53,51.21,5.95,76.82,8.9
		c9.91,1.14,12.6,5.4,7.91,12.97c0-2.13,0-4.27,0-6.4c-0.93-0.16-1.86-0.33-2.8-0.49C529.55,628.35,523.79,648.54,518.04,668.73z"/>
	<path fill="#BA8146" d="M168.7,882.19c-9.48-2.03-18.81-4.03-28.07-6.01c0-14.68,0-28.6,0-43.23c9.48,1.68,18.56,3.28,28.07,4.96
		C168.7,852.68,168.7,867.19,168.7,882.19z"/>
	<path fill="#6B778D" d="M720.07,613.14c1.82,21.71-9.38,40.85-12.22,61.67c-1.08,7.87-3.32,15.58-5.23,24.31c-4.6,0-9.19,0-15.59,0
		c2.19-15.58,4.26-30.35,6.33-45.11C697.59,637.34,716.63,630.34,720.07,613.14z"/>
	<path fill="#BA8146" d="M727.59,803.08c-24.83,15.25-49.67,30.5-74.5,45.74c-0.69,0.42-1.37,0.83-2.06,1.25
		c0,0,0.04-0.05,0.04-0.05c-1.01,0.68-2.02,1.36-3.03,2.04c0,0,0.06-0.03,0.06-0.03c-0.69,0.35-1.38,0.69-2.07,1.04
		c0,0,0.04-0.06,0.04-0.06c-1.01,0.68-2.02,1.36-3.03,2.05c0,0,0.02-0.03,0.02-0.03c-14.01,8.68-28.03,17.36-42.04,26.03
		c0,0,0.05-0.03,0.05-0.04c-1.01,0.68-2.02,1.36-3.03,2.04c0,0,0.05-0.03,0.05-0.03c-0.35,0.35-0.7,0.7-1.06,1.05
		c0,0,0.06-0.06,0.06-0.06c-0.69,0.34-1.37,0.69-2.06,1.03c0,0,0.05-0.04,0.05-0.04c-1.35,0.68-2.7,1.35-4.05,2.03
		c0,0,0.06-0.03,0.06-0.03c-0.69,0.34-1.38,0.69-2.06,1.03c0,0,0.05-0.04,0.05-0.04c-0.35,0.35-0.7,0.7-1.05,1.05
		c0,0,0.06-0.05,0.06-0.05c-0.69,0.34-1.37,0.69-2.06,1.03c0,0,0.06-0.03,0.06-0.03c-0.69,0.35-1.38,0.69-2.07,1.04
		c0,0,0.07-0.06,0.07-0.06c-0.35,0.36-0.71,0.71-1.06,1.07c0,0,0.06-0.05,0.06-0.05c-0.69,0.34-1.37,0.69-2.06,1.03
		c0,0,0.07-0.04,0.07-0.04c-0.69,0.35-1.38,0.69-2.07,1.04c0,0,0.06-0.05,0.06-0.05c-0.35,0.35-0.7,0.7-1.05,1.06
		c0,0,0.05-0.05,0.05-0.05c-0.68,0.34-1.36,0.69-2.05,1.03c0,0,0-0.16,0-0.16c-6.44,0.79-4.66-3.04-3.62-6.45
		c33.29-20.05,66.62-40.02,99.86-60.16c18.84-11.41,37.52-23.08,56.27-34.64C728.24,797.47,727.91,800.27,727.59,803.08z"/>
	<path fill="#F7F3E8" d="M208.11,806.09c30.54,5.54,61.07,11.08,92.95,16.86c-3.28-2.7-5.97-4.9-8.62-7.08
		c1.77-0.84,4.16-1.97,7.2-3.42c8.93,3.75,18.53,7.77,28.78,12.07c0.24,0.8,0.69,2.34,1.17,3.91c3.3,0.47,6.58,0.91,10.74,1.47
		c0.56,0.45,1.84,1.48,1.03,0.83c6.92,1.26,11.52,2.09,16.61,3.01c0.23-0.34,1.02-1.56,1.93-2.94c8.49-1.53,16.89-2.94,23.18,5.32
		l0.01-0.02c-5.95,1.41-11.21-6.67-17.19-1.15c-1.85-0.25-3.43-0.47-5.01-0.69c-0.07,0.42-0.15,0.84-0.22,1.27
		c42.25,8.78,84.5,17.56,128.87,26.78c-2.2-4.1-3.2-5.96-4.55-8.48c10.51-4.38,23.65,5.93,32.35-5.81c0.6,0.03,1.2,0.06,1.8,0.09
		c0.92,1.47,1.85,2.94,2.46,3.91c-5.31,3.29-10.38,6.43-15.44,9.57c-3.15-0.99-6.31-1.97-10.87-3.39c1.53,3.73,2.15,5.21,2.76,6.7
		c-83.84-16.76-167.69-33.48-251.51-50.31C233.69,811.99,220.92,808.93,208.11,806.09z M303.84,823.28
		c-0.16,0.45-0.32,0.9-0.48,1.35c1.23,0.16,2.46,0.33,10.59,1.41C306.09,823.89,304.97,823.58,303.84,823.28z"/>
	<path fill="#BA8146" d="M542.74,905.96c-14.97,2.76-28.06-5.32-41.3-6.44c-8.57-31.09,9.73-26.06,26.6-20.28
		c12.36,4.24,21.59-0.77,31.48-6.15c1.63-0.89,4.21-0.05,6.35-0.01c-8.49,5.44-16.99,10.88-26.2,16.79
		C542.23,894.81,536.66,901.21,542.74,905.96z"/>
	<path fill="#BA8146" d="M311.44,672.07c-32.06,22.83-62.97-3.62-95.19,0.71c0-6.99,0-11.1,0-15.2
		C247.98,662.41,279.71,667.24,311.44,672.07z"/>
	<path fill="#4F321E" d="M540.19,961.39c-0.03-15.77-0.05-31.54-0.08-47.31c7.65-4,15.29-8.01,23.63-12.38c0,16.52,0,32.02,0,49.03
		C556.28,954.11,548.23,957.75,540.19,961.39z"/>
	<path fill="#D5CEC0" d="M622.8,782.17c0.2-1.46,0.4-2.93,0.6-4.42c1.82-1.09,3.51-2.1,5.44-3.25c-0.49-1.56-0.96-3.08-1.68-5.39
		c7.44-3.68,14.93-7.39,22.42-11.1c0.2,0.22,0.4,0.44,0.6,0.67c0.61,1.14,1.21,2.28,1.82,3.42c1.34,4,2.67,8,4.01,12
		c0.44,8.86,0.87,17.72,1.32,26.94c-9.03,1.24-10.69-12.83-19.98-8.58c-0.94-2.12-1.52-3.44-3.39-7.66
		c1.57,14.47,2.8,25.81,4.07,37.55c-3.62-1.31-3.17-7.42-7.99-4.09C627.63,806.22,625.22,794.2,622.8,782.17z"/>
	<path fill="#6B778D" d="M496.98,959.04c-0.53,0.04-1.06,0.08-1.59,0.12c-0.86-0.39-1.69-0.96-2.59-1.15
		c-64.74-14-129.48-27.95-194.22-41.95c-35.02-7.57-70.02-15.24-105.02-22.86c3.48,2.55,7.56,2.84,11.13,4.33
		c9.89,4.13,22.11,0.69,30.49,9.5c-19.79-3.99-39.57-7.98-59.36-11.96c-1.1-2.54-2.21-5.08-4.57-10.53
		c45.37,9.75,87.71,18.86,130.05,27.96c1.95,0.89,3.82,2.15,5.86,2.6c23.33,5.19,46.66,10.35,70.04,15.33
		c34.3,7.31,68.64,14.46,102.96,21.67C485.55,954.91,493.56,951.42,496.98,959.04z"/>
	<path fill="#4F321E" d="M843.15,775.13c0-4.3,0-8.6,0-12.8c-1.4-0.87-2.55-1.6-3.7-2.31c0.44-0.31,0.89-0.63,1.33-0.94
		c20.07-12.01,40.13-24.02,60.2-36.04c0.57-0.03,1.15-0.06,1.72-0.09c9.14,2.93,1.91,10.33,4.94,15.22
		C885.76,750.71,864.45,762.92,843.15,775.13z"/>
	<path fill="#D5CEC0" d="M720.07,613.14c-3.44,17.2-22.48,24.19-26.71,40.87c0.31-7.32,0.61-14.64,0.92-21.97
		c0.09-0.13,0.26-0.36,0.25-0.37c-0.2-0.19-0.44-0.35-0.66-0.51c-0.27-0.3-0.53-0.59-0.8-0.89c5.51-3.73,11.02-7.47,18.69-12.67
		c-49.48-4.03-95.84-13.95-141.86-26.27c47.28,7.13,94.13,17.41,149.35,20.73c-5.18,1.1-2.67,0.57-0.16,0.03
		C719.41,612.45,719.74,612.8,720.07,613.14z"/>
	<path fill="#6B778D" d="M630.05,818.25c4.81-3.33,4.37,2.78,7.99,4.09c-1.27-11.73-2.5-23.07-4.07-37.55
		c1.87,4.22,2.45,5.55,3.39,7.66c9.29-4.25,10.95,9.82,19.98,8.58c-0.45-9.22-0.89-18.08-1.32-26.94
		c1.71,8.78,4.37,17.51,4.94,26.36c1.65,25.75-2.21,30.76-29.36,41.1C631.07,833.66,630.56,825.96,630.05,818.25z"/>
	<path fill="#BA8146" d="M287.84,690.09c-9.58,3.57-18.75,9.69-30.22,2.69c-0.38,5.51-0.63,9.08-0.92,13.27
		c-7.03,2.76-14.43,5.66-22.84,8.96c0-12.33,0-23.58,0-37.33c18.6,3.77,36.91,7.48,55.23,11.18c-0.04,0.15-0.12,0.31-0.12,0.47
		c-0.01,0.26,0.04,0.52,0.06,0.78c0,0,0.1-0.1,0.1-0.1C288.69,690.05,288.27,690.07,287.84,690.09z"/>
	<path fill="#D5CEC0" d="M542.3,606.05c1.68-3.69,2.48-8.16,6.93-8.34c1.99-2.73,3.54-4.84,4.68-6.4
		c-43.57-3.33-86.87-9.52-129.36-19.76c-0.43-2.62-0.67-4.06-0.91-5.5c0,0,0,0.04,0,0.04c44.65,10.93,90.03,17.16,135.79,20.94
		c0.61,4.85,1.22,9.69,1.86,14.77c-10.06,3.49-9.61,12.67-13.11,19.45c0-3.85,0-7.71,0-11.56c-0.84-0.05-1.68-0.1-2.51-0.16
		c-0.87,4.56-1.74,9.13-2.62,13.69C542.8,617.5,542.55,611.77,542.3,606.05z"/>
	<path fill="#F7F3E8" d="M751.22,698.05c-1.2-0.04-2.4-0.08-3.6-0.12c-0.91,0.45-1.82,0.91-2.73,1.36c-0.61,0.6-1.22,1.21-1.83,1.81
		l0.07-0.04c-0.69,0.35-1.38,0.7-2.07,1.05l0.06-0.05c-1.19,0.69-2.38,1.37-3.57,2.06c-10.15,6-20.31,12.01-30.46,18.01
		c-8.37-4.75-16.74-9.51-25.51-14.48c7.92-2.98,16.2-6.1,24.48-9.22c1.4,0.93,3.09,2.91,4.15,2.61c10.35-2.85,20.6-6.08,31.41-9.37
		c-7.59-1.54-14.51-2.95-21.43-4.35C730.56,690.81,744.76,683.23,751.22,698.05z"/>
	<path fill="#6B778D" d="M540.06,995.02c-12.78-2.5-25.56-5-38.56-7.54c0-6.44,0-12.18,0-18.06c1-0.62,2.22-1.38,3.45-2.14
		c11.51,2.74,23.01,5.49,35.57,8.48c-0.73-3.6-1.08-5.34-1.43-7.08c3.98-1.57,7.96-3.14,11.95-4.7c0.72,2.42,1.43,4.83,2.15,7.25
		c-0.05,0.3-0.19,0.55-0.4,0.76c-4.02,1.7-8.04,3.41-12.72,5.39C540.06,982.86,540.06,988.94,540.06,995.02z"/>
	<path fill="#F7F3E8" d="M302.29,597.02c-11-3.3-22-6.6-33-9.91c6.13,0.79,12.26,1.59,20.01,2.59c-1.77-3.36-2.94-5.58-4.7-8.93
		c0.18-0.57,0.75-2.37,1.37-4.34c3.43-0.23,6.5-0.43,10.78-0.71c-2.39-9.09-11.73-17.25-2.07-26.29c-3.55-1.35-6.11-2.33-8.66-3.31
		c7.03,0.85,14.06,1.71,21.86,2.66c0,16.18,0,32.72,0,49.26C306.02,597.71,304.16,597.36,302.29,597.02z"/>
	<path fill="#4F321E" d="M728.56,794.66c-18.75,11.55-37.44,23.22-56.27,34.64c-33.24,20.14-66.57,40.12-99.86,60.16
		c-0.18-1.78-0.37-3.56-0.64-6.2c52.05-30.68,104.09-61.35,156.77-92.4C728.56,792.62,728.56,793.64,728.56,794.66z"/>
	<path fill="#D5CEC0" d="M840.78,759.07c-0.45,0.31-0.89,0.63-1.33,0.94c-34.83-5.99-69.66-11.96-104.47-18.09
		c-1.41-0.25-2.54-2.1-3.79-3.21c-0.01-0.45-0.02-0.9-0.03-1.34c4.19-0.09,8.37-0.17,12.56-0.26c28.27,4.67,56.55,9.24,84.78,14.1
		C833.43,752.07,839.83,751.58,840.78,759.07z"/>
	<path fill="#BA8146" d="M735.3,762.92c2.68,0.51,4.95,0.94,4.13,0.79c0,29.39,0,58.07,0,86.75c-1.38-0.17-2.75-0.34-4.13-0.51
		C735.3,821.2,735.3,792.45,735.3,762.92z"/>
	<path fill="#D5CEC0" d="M311.44,672.07c-31.73-4.83-63.46-9.66-95.19-14.49c0.82-1.45,1.63-2.9,2.45-4.35
		c32.45,4.36,64.91,8.71,97.35,13.16c0.74,0.1,1.32,1.33,1.98,2.03C315.83,669.64,313.63,670.85,311.44,672.07z"/>
	<path fill="#57595F" d="M168.2,893.14c0,6.23,0,12.45,0,20.08c-11.76-2.24-22.6-4.31-34.09-6.5c0-3.11,0-6.87,0-10.63
		c1-2.36,1.99-4.71,3.14-7.43C147.25,890.11,157.73,891.63,168.2,893.14z"/>
	<path fill="#57595F" d="M902.69,722.95c-0.58,0.03-1.15,0.06-1.72,0.09c-1.6-0.38-3.2-0.75-5.24-1.23
		c0.52-1.01,0.91-1.77,3.87-7.54c-17.83,14.19-33.54,20.49-51.7,16.37c3.49-2.13,6.98-4.24,10.39-6.31
		c-0.83-4.93-1.56-9.25-2.41-14.3c16.25,2.58,32.58,5.18,50.28,7.99C904.39,720.53,903.54,721.74,902.69,722.95z"/>
	<path fill="#6B778D" d="M669.08,708.09c-77.72-21.53-156.4-38.07-236.81-45.61c-10.24-0.96-20.5-1.69-30.71-3.35
		c4.89,0,9.78,0,14.67,0c10.97,0.71,21.93,1.41,32.9,2.12c30.01,4.63,60.03,9.25,90.04,13.88c11.97,2.34,23.94,4.68,35.91,7.02
		c31.71,8.28,63.41,16.56,95.12,24.83c0,0,0.04-0.01,0.04-0.01C669.86,707.35,669.47,707.72,669.08,708.09z"/>
	<path fill="#D5CEC0" d="M562.79,823.31c0.3-1.49,0.6-2.99,0.96-4.81c2.11-1.2,4.5-2.55,7.85-4.45c2.42,12.63,4.84,25.29,7.26,37.96
		c1.09,6.8,2.19,13.61,3.3,20.53c-3.16,1.95-6.07,3.75-8.32,5.15C570.14,859.51,566.46,841.41,562.79,823.31z"/>
	<path fill="#4F321E" d="M777.02,525.16c6.15-3.9,12.29-7.8,18.19-11.54c11.46,14.14,0.68,29.39-21.12,33.47
		c0.11-5.7,0.21-11.41,0.32-17.11c0.26-0.13,0.5-0.28,0.72-0.45C775.76,528.08,776.39,526.62,777.02,525.16z"/>
	<path fill="#57595F" d="M843.96,872.96c5.64-10.92,59.88-45.41,65.04-39.62c-22.03,13.07-38.74,33.56-63.75,41.95
		C844.82,874.51,844.39,873.74,843.96,872.96z"/>
	<path fill="#BA8146" d="M168.02,816.59c0.49,5.06,0.98,10.12,1.57,16.26c-12.77-2.36-24.61-4.55-36.64-6.78c0-5.84,0-11.09,0-16.35
		C144.63,812.01,156.33,814.3,168.02,816.59z"/>
	<path fill="#F7F3E8" d="M330.29,690.07c34.54-1.19,68.29,5.59,101.95,11.5c57.16,10.04,114.05,21.7,170.96,33.15
		c7.54,1.52,14.53,5.77,21.78,8.76c-96.24-26.04-193.98-43.63-293.3-52.49C331.19,690.95,330.75,690.39,330.29,690.07z"/>
	<path fill="#4F321E" d="M740.97,882.39c6.08,0.66,12.15,1.32,18.23,1.98c0.3,0.25,0.61,0.5,0.91,0.76c0,0-0.03-0.02-0.03-0.02
		c24.05,4.69,48.09,9.38,72.14,14.06c3.59-0.32,7.19-0.64,10.78-0.96c0,1.97,0,3.95,0,7.93c-24.93-4.56-49.17-8.99-73.42-13.43
		c-8.14-1.49-16.3-2.87-24.39-4.6C742.5,887.54,739.32,886.53,740.97,882.39z"/>
	<path fill="#BA8146" d="M774.41,529.98c-0.11,5.7-0.21,11.41-0.32,17.11c-9.79-1.39-19.57-2.79-28.85-4.11
		c-1.44-2.12-2.6-3.83-4.03-5.94c0-3.8,0-8.09,0-12.38C752.27,526.44,763.34,528.21,774.41,529.98z"/>
	<path fill="#57595F" d="M261.1,750.15c1.38,1.08,2.75,2.16,5.33,4.19c-17.23-1.57-32.73-2.98-48.22-4.39
		c-11.42-0.6-23.1-4.81-33.99,2.33c0,0,0,0.02,0,0.02c-5.16,1.04-10.32,2.08-19.32,3.9c26.61-22.16,52.46-12.73,77.75-9.18
		c1.55,0.36,3.09,0.72,4.63,1.07c0.49-0.03,0.98-0.06,1.48-0.09c3.85,0.69,7.7,1.39,11.54,2.08
		C260.57,750.04,260.84,750.06,261.1,750.15z"/>
	<path fill="#4F321E" d="M542.74,905.96c-6.08-4.76-0.51-11.15-3.07-16.1c9.21-5.9,17.71-11.34,26.2-16.79
		c0.73,5.52,4.08,13.73,1.7,16.04C560.51,895.99,551.18,900.52,542.74,905.96z"/>
	<path fill="#FEFEFE" d="M804.01,674.98c5.32,1.42,10.64,2.84,15.95,4.26c-0.69,1.58-1.38,3.15-2.07,4.73l0.07-0.08
		c-0.91,1.1-1.83,2.21-2.76,3.34c0.92,2.45,1.78,4.72,2.76,7.34c-0.35,1.97-0.76,4.33-1.34,7.62c-6.49-1.02-12.85-2.02-19.34-3.03
		c0-8.03,0-15.77,0-24.16C799.57,674.98,801.79,674.98,804.01,674.98z"/>
	<path fill="#4F321E" d="M743.71,737.11c-4.19,0.09-8.37,0.17-12.56,0.26c9.81-13.22,25.79-17.34,38.69-25.99
		c6.42-4.3,13.62-7.43,20.27-10.99c3.26,0.75,6.21,1.42,9.16,2.1c-18.58,10.01-37.17,19.98-55.65,30.18
		C743.03,733,743.66,735.58,743.71,737.11z"/>
	<path fill="#4F321E" d="M722.79,646.28c2.58,0.18,5.16,0.36,8.27,0.58c0.7,0.83,1.73,2.06,3.17,3.76
		c-4.01,3.74-7.82,7.29-12.13,11.31c3.97,4.46,7.34,8.24,11.38,12.77c1.83-7.59,3.16-13.08,4.48-18.57c0,8.85,0,17.71,0,26.91
		c-6.4-1.6-12.56-3.13-18.93-4.72c-0.67-2.96-1.37-6.02-2.33-10.23C718.49,661.69,720.64,653.98,722.79,646.28z"/>
	<path fill="#4F321E" d="M320.89,666.83c15.76-8.22,31.52-16.43,47.28-24.65c0.64-0.05,1.28-0.1,1.92-0.16c0,0-0.04,0.03-0.04,0.03
		c0.68-0.34,1.37-0.68,2.05-1.02c0,0-0.12,0-0.12,0c1.34,0.85,2.68,1.7,4.79,3.05c0-48.89,0-97.33,0-145.76c0.48,0,0.97,0,1.45,0
		c0,49.18,0,98.36,0,148.74C359.26,653.6,340.07,660.21,320.89,666.83z"/>
	<path fill="#4F321E" d="M389.51,429.5c2.14-5.87,4.54-11.66,12.99-9.96c9.41,1.89,10.21,8.56,9.05,18.45
		c-2.71,1.08-6.5,3.71-10.43,3.92C393.63,442.3,390.85,436.58,389.51,429.5z"/>
	<path fill="#6B778D" d="M843.96,872.96c0.43,0.78,0.86,1.55,1.29,2.33c-0.32,0.31-0.65,0.61-0.97,0.92
		c-1.47,1.33-2.94,2.66-5.4,4.88c-1.46-0.42-4.11-1.19-6.76-1.95c-0.14-1.25-0.27-2.51-0.42-3.83c-3.77-0.7-7.16-1.55-10.6-1.95
		c-28.71-3.32-56.53-13.36-85.94-11.28c-1.65-0.34-3.3-0.68-4.96-1.01c0-1.6,0-3.21,0-5.5
		C768.55,861.43,806.26,867.19,843.96,872.96z"/>
	<path fill="#D5CEC0" d="M663.02,701.17c7.61-20.01,15.14-40.06,22.96-59.99c0.92-2.35,3.42-4.07,5.19-6.09
		c-5.76,19.47-11.53,38.94-17.26,58.42c-0.9,3.06-1.64,6.17-2.51,9.5C668.56,702.39,665.79,701.78,663.02,701.17z"/>
	<path fill="#D5CEC0" d="M518.04,668.73c5.75-20.19,11.51-40.37,17.26-60.56c0.93,0.16,1.86,0.33,2.8,0.49c0,2.13,0,4.27,0,6.4
		c-4.38,18.25-8.76,36.5-13.19,54.97C522.91,669.66,520.48,669.19,518.04,668.73z"/>
	<path fill="#BA8146" d="M169.06,804.08c-9.47-1.77-18.94-3.54-32.1-6c7.36-5.05,12.07-8.28,16.92-11.61
		c5.37,0.35,10.92,0.71,16.48,1.08C169.92,793.07,169.49,798.58,169.06,804.08z"/>
	<path fill="#4F321E" d="M531.01,827.68c8.36-1.61,14.72,2.15,15.08,10.03c0.62,13.42-8.98,15.98-20.67,14.98
		c-4.8-3.99-6.18-9.62-4.97-15.79c0.3-1.53,2.82-2.62,4.31-3.91c0.44,0.98,0.88,1.96,1.38,3.06c-1.29,0.56-2.57,1.11-5.46,2.36
		c2.92,2.51,5.09,5.87,7.22,5.85c2.9-0.03,6.83-1.94,8.38-4.32c1.76-2.7,1.37-6.79,1.91-10.3
		C534.81,828.72,532.91,828.2,531.01,827.68z"/>
	<path fill="#D5CEC0" d="M480.16,952.08c-34.32-7.22-68.66-14.37-102.96-21.67c-23.37-4.98-46.71-10.14-70.04-15.33
		c-2.05-0.45-3.91-1.71-5.86-2.6c57.8,12.56,115.59,25.12,173.38,37.72C476.55,950.6,478.33,951.44,480.16,952.08z"/>
	<path fill="#6B778D" d="M186.18,914.03c24.62,4.67,49.34,8.92,73.85,14.11c40.11,8.49,80.09,17.59,120.11,26.51
		c1.4,0.31,2.6,1.52,3.89,2.31C318.08,942.65,252.13,928.34,186.18,914.03z"/>
	<path fill="#BA8146" d="M401.08,459.82c-0.99,0.58-1.97,1.17-2.59,1.53c-2.03-0.25-4.02-0.49-15.08-1.83
		c4.17,0.77-0.66-0.12-6.01-1.11c0.57-1.82,0.99-3.14,1.4-4.47c1.75-0.36,3.14-0.65,5.12-1.07c-1.43-0.52-2.32-0.84-3.76-1.36
		c7.23-4.41,13.97-8.7,23.3-4.27c0.64,0.79,1.99,2.43,3.33,4.07C404.89,454.15,402.98,456.99,401.08,459.82z"/>
	<path fill="#57595F" d="M651.33,600.22c-14.22-2.68-28.44-5.35-42.66-8.03c1.44-1.58,2.88-3.17,4.32-4.75
		c0.37-0.46,0.74-0.92,1.11-1.38l-0.05,0.01c10.25-1.48,20.12,9.24,30.59,0.99C646.87,591.45,649.1,595.84,651.33,600.22z"/>
	<path fill="#4F321E" d="M164.74,759.5c10.15-0.24,11.84,5.4,9.68,14.04c4.25,2.51,1.59,5.12-0.57,7.26
		c-6.64,6.57-13.58,4.49-19.24-0.94c-4.2-4.03-6.61-9.59-0.84-14.87c0.18,2.91,0.36,5.82,0.56,9.18c4.17,0.46,7.72,0.86,10.73,1.19
		C172.19,769.3,168.88,764.38,164.74,759.5z"/>
	<path fill="#6B778D" d="M772.05,830c15.8-10.51,30.4-0.75,45.28,2.92c1.58,0.39,4.3,3.62-0.24,5.17
		C802.08,835.39,787.07,832.7,772.05,830z"/>
	<path fill="#F7F3E8" d="M814.04,853.07c-14.47-2.55-28.94-5.09-43.59-7.67c0-2.27,0-4.04,0-7.12c13.98,2.59,27.79,5.14,41.59,7.7
		C812.71,848.35,813.38,850.71,814.04,853.07z"/>
	<path fill="#57595F" d="M587.4,587.87c-9.83-1.59-19.65-3.18-29.48-4.77c2.27-3.35,4.55-6.7,6.82-10.05
		c8.33,6.15,17.9,5.54,27.45,5.02l-0.07-0.03c0.37,0.81,0.73,1.63,1.1,2.44c0.69,1.27,1.38,2.55,1.71,3.16
		C591.97,585.29,589.69,586.58,587.4,587.87z"/>
	<path fill="#57595F" d="M263.38,706.27c0.26,0.29,0.52,0.58,0.78,0.87c0.66,0.49,1.31,0.98,1.97,1.46
		c-14.01,6.24-28.02,12.47-42.92,19.1c2.29,0.29,3.55,0.45,7.54,0.96c-5.96,1.07-9.22,1.65-12.49,2.24
		c-4.74-0.44-9.48-0.88-14.23-1.32c0,0,0-0.01,0-0.01c18.35-7.39,36.7-14.79,55.06-22.14C260.47,706.89,261.95,706.65,263.38,706.27
		z"/>
	<path fill="#D5CEC0" d="M744.89,699.29c0.91-0.45,1.82-0.91,2.73-1.36c0.95,2.01,1.9,4.02,2.82,5.98
		c-13.07,7.46-25.45,14.53-39.01,22.26c0.09-0.5-0.14,0.75-0.37,2c-1.33-2.02-2.65-4.03-3.98-6.05c10.15-6,20.31-12.01,30.46-18.01
		c1.19-0.69,2.38-1.37,3.57-2.06l-0.06,0.05c0.69-0.35,1.38-0.7,2.07-1.05l-0.07,0.04C743.67,700.5,744.28,699.9,744.89,699.29z"/>
	<path fill="#57595F" d="M716.95,793.74c1.05-8.55,2.1-17.1,3.4-27.61c0.53-1.43,1.78-4.86,3.04-8.29c1.75,1.46,3.5,2.93,5.09,4.25
		c0,8.6,0,16.97,0,26.38C724.64,790.22,720.79,791.98,716.95,793.74z"/>
	<path fill="#6B778D" d="M168.2,893.14c-10.47-1.52-20.95-3.03-30.94-4.48c-1.15,2.72-2.15,5.07-3.14,7.43
		c-0.53-4.18-1.06-8.37-2-15.71c11.47,1.96,22.91,3.69,34.23,5.99C169.9,887.1,169.88,890.24,168.2,893.14z"/>
	<path fill="#4F321E" d="M541.87,1003.17c2.54-0.59,4.51-1.05-2.32,0.54c-7.08-1.57-22.56-4.99-39.82-8.81
		c3.01-2.33,4.48-3.46,6.1-4.71c11.08,2.2,22.11,4.4,33.63,6.69C540.08,998.52,540.89,1000.64,541.87,1003.17z"/>
	<path fill="#4F321E" d="M169.06,804.08c0.43-5.51,0.86-11.01,1.29-16.52c5.43-3.49,10.52-0.5,15.4,1.3
		c1.55,0.57,2.14,3.76,3.18,5.74C182.31,797.76,175.68,800.92,169.06,804.08z"/>
	<path fill="#4F321E" d="M497.22,664.95c3.69-1.68,7.39-3.36,13.49-6.14c2.88-10.92,6.37-24.13,11.31-42.88
		c0.5,8.53,0.67,11.35,0.83,14.17c-3.61,12.33-7.23,24.65-10.84,36.98c-4.26-0.42-8.52-0.83-12.78-1.25
		C498.57,665.53,497.9,665.24,497.22,664.95z"/>
	<path fill="#4F321E" d="M400.71,761.02c-49.85-8.28-99.71-16.55-149.56-24.83c0.38-0.32,0.77-0.63,1.15-0.95
		C301.78,743.84,351.24,752.43,400.71,761.02z"/>
	<path fill="#57595F" d="M540.06,995.02c0-6.08,0-12.16,0-17.65c4.68-1.98,8.7-3.69,12.72-5.39c0,7.05,0,14.1,0,22.17
		C548.04,994.47,544.05,994.75,540.06,995.02z"/>
	<path fill="#D5CEC0" d="M720.19,687.31c6.92,1.41,13.84,2.81,21.43,4.35c-10.81,3.28-21.06,6.51-31.41,9.37
		c-1.06,0.29-2.75-1.69-4.15-2.61C708.76,692.17,712.62,687.38,720.19,687.31z"/>
	<path fill="#F7F3E8" d="M559.43,587.03c-45.76-3.78-91.13-10.01-135.79-20.94c19.19,3.25,38.32,6.91,57.59,9.65
		c24.58,3.49,49.26,6.21,73.89,9.36C556.61,585.29,558,586.37,559.43,587.03z"/>
	<path fill="#4F321E" d="M773.28,512.2c-1.43-1.77-2.85-3.54-4.28-5.31c0.18-1.6,0.36-3.21,0.63-5.62
		c8.44,1.12,17.45-1.73,24.21,7.63c-6.01,3.52-11.39,6.67-16.76,9.82C775.4,515.85,774.34,514.03,773.28,512.2z"/>
	<path fill="#BA8146" d="M757.98,488.04c-0.24-10.48,4.65-14.47,14.85-11.72c0.84,2.95,1.68,5.89,2.75,9.62
		c-1.99,1.79-4.34,3.91-6.38,5.74c-3.66,0.45-6.78,0.83-9.9,1.21l-0.21,0.15c0,0,0.22-0.13,0.22-0.13
		C758.86,491.29,758.42,489.67,757.98,488.04z"/>
	<path fill="#D5CEC0" d="M539.09,968.67c0.35,1.74,0.7,3.48,1.43,7.08c-12.56-2.99-24.07-5.74-35.57-8.48
		c-5.23-0.26-3.15-4.14-3.79-6.67C514.03,963.35,526.56,966.01,539.09,968.67z"/>
	<path fill="#4F321E" d="M822.13,824.37c0.05-15.13,0.09-30.25,0.14-45.38c1.33-0.21,2.67-0.43,4.45-0.71c0,18.13,0,35.52,0,53.45
		C824.95,828.9,823.54,826.63,822.13,824.37z"/>
	<path fill="#4F321E" d="M401.08,459.82c1.9-2.83,3.8-5.66,5.71-8.5c0.11,0.93,0.23,1.87,0.34,2.8c-0.07,0.13-0.14,0.26-0.21,0.39
		c0.06-0.14,0.12-0.28,0.17-0.43c0.56-1.48,1.12-2.97,1.68-4.44c6.08-1.04,13.25-5.92,16.37,6.1c-6.99,2.88-14.23,5.85-22.08,9.08
		C402.22,462.71,401.65,461.26,401.08,459.82z"/>
	<path fill="#BA8146" d="M535.04,874.76c-8.82-2.13-17.63-4.26-26.98-6.53c-0.53-10.65,10.04-9.59,15.69-14.75
		c1.48,1.78,2.67,3.2,3.85,4.62c-4.28,1.45-8.56,2.9-15.07,5.11c9.58,2.37,16.71,4.14,23.83,5.9c0.42,0.96,0.85,1.92,1.48,3.35
		C536.96,873.19,536,873.98,535.04,874.76z"/>
	<path fill="#57595F" d="M397.66,624.19c-0.21,1.74-0.43,3.48-0.64,5.22c-1.49,5.69-2.98,11.37-4.56,17.38c-3.01,0-5.62,0-8.22,0
		c-0.69-2.88-1.39-5.76-2.41-9.98c1.85,1.58,2.59,2.22,3.91,3.34c0.5-8.46,0.97-16.43,1.44-24.39c0.41-0.01,0.82-0.01,1.23-0.02
		c0,5.37,0,10.75,0,23.61c2.29-9.18,2.75-11.05,3.63-14.55c1.21-0.14,3.25-0.37,5.29-0.6C397.32,624.21,397.66,624.19,397.66,624.19
		z"/>
	<path fill="#BA8146" d="M835.45,715.14c-4.76,0-9.52,0-15.15,0c0.45-6.61,0.83-12.29,1.23-18.13c2.96,0.17,5.58,0.31,8.19,0.46
		C831.63,703.36,833.54,709.25,835.45,715.14z"/>
	<path fill="#4F321E" d="M629.68,500.04c-1.01-0.38-2.01-0.76-3.02-1.15c16.74,2.08,33.48,4.18,50.22,6.23
		c22.01,2.7,44.03,5.34,66.02,8.14c1.1,0.14,2.05,1.48,3.07,2.26c-2.55,0.91-5.09,1.82-7.64,2.72c-0.19-1.07-0.38-2.13-0.47-2.63
		c-35.03-5.26-69.67-10.47-104.32-15.67C632.25,499.97,630.96,500.01,629.68,500.04z"/>
	<path fill="#57595F" d="M553.18,971.22c-0.72-2.42-1.43-4.83-2.15-7.25c0,0,0.01,0.12,0.01,0.12c0.35-0.36,0.71-0.71,1.06-1.07
		c0,0-0.08,0.06-0.08,0.06c0.7-0.35,1.4-0.71,2.1-1.06c0,0-0.1,0.05-0.1,0.05c0.39-0.3,0.79-0.59,1.18-0.89
		c6.68-3.68,12.38-9.74,27.7-8.09C570.13,960.89,561.66,966.05,553.18,971.22z"/>
	<path fill="#BA8146" d="M164.74,759.5c4.14,4.87,7.45,9.8,0.33,15.87c-3.01-0.33-6.56-0.73-10.73-1.19
		c-0.21-3.37-0.38-6.27-0.56-9.18C157.43,763.17,161.09,761.33,164.74,759.5z"/>
	<path fill="#BA8146" d="M531.01,827.68c1.9,0.52,3.79,1.04,7.18,1.97c-0.55,3.51-0.16,7.6-1.91,10.3
		c-1.55,2.37-5.48,4.29-8.38,4.32c-2.14,0.02-4.3-3.34-7.22-5.85c2.89-1.25,4.18-1.8,5.46-2.36c-0.5-1.1-0.94-2.08-1.38-3.06
		C526.85,831.22,528.93,829.45,531.01,827.68z"/>
	<path fill="#BA8146" d="M223.49,718.81c0-13.6,0-27.2,0-41.29c1.34,0.07,2.67,0.14,4.81,0.24c-0.66,14.13-1.29,27.8-1.93,41.47
		C225.41,719.09,224.45,718.95,223.49,718.81z"/>
	<path fill="#6B778D" d="M306.85,636.19c0.05,0.37,0.09,0.75,0.14,1.12c0.03,1.58,0.05,3.17,0.08,4.75
		c-0.24,0.21-0.52,0.36-0.82,0.46c-9.95-1.54-19.89-3.08-29.84-4.63c9.1-10.05,20,1.25,29.63-2.49
		C306.3,635.67,306.57,635.93,306.85,636.19z"/>
	<path fill="#F7F3E8" d="M772.05,830c15.01,2.7,30.03,5.39,45.04,8.09c-0.81,1.25-1.61,2.51-2.59,4.02
		c-14.54-2.78-29.05-5.55-44.46-8.49C770.84,832.18,771.45,831.09,772.05,830z"/>
	<path fill="#D5CEC0" d="M168.02,816.59c-11.69-2.29-23.38-4.58-35.08-6.87c0,0,0.07-0.08,0.07-0.08c0.04-0.65,0.08-1.3,0.13-1.95
		c0.18-0.86,0.36-1.71,0.54-2.57c11.08,2.12,21.67,8.05,33.5,4.36c1.15,0.53,2.31,1.06,3.91,1.79
		C169.98,813.19,169,814.89,168.02,816.59z"/>
	<path fill="#4F321E" d="M832.08,726.4c0.74,1.5,1.47,2.99,2.29,4.63c-10.68,2.34-31.68-4.47-31.54-9.87
		c8.41,1.31,16.81,2.62,25.22,3.93l0.32,0.14c0,0,0.33-0.11,0.33-0.11C829.82,725.55,830.95,725.98,832.08,726.4z"/>
	<path fill="#4F321E" d="M651.33,600.22c-2.23-4.39-4.46-8.77-6.69-13.16c-1.2-2.95-2.41-5.9-3.61-8.85
		c6.18,10.83,13.07,20.31,27.91,14.75c-0.43,1.04-0.86,2.09-1.29,3.13c-1.17,1.96-2.35,3.92-3.52,5.88
		C659.86,601.4,655.6,600.81,651.33,600.22z"/>
	<path fill="#D5CEC0" d="M670.2,706.99c-31.7-8.28-63.41-16.56-95.12-24.83C607.39,688.16,639.48,694.96,670.2,706.99z"/>
	<path fill="#4F321E" d="M835.45,715.14c-1.91-5.89-3.82-11.78-5.73-17.67c2.68-0.65,5.36-1.31,8.46-2.06
		c1.68,4.69-0.52,11.48,11.13,13.03C842.39,711.78,838.92,713.46,835.45,715.14z"/>
	<path fill="#D5CEC0" d="M536.37,869.11c-7.13-1.77-14.26-3.53-23.84-5.9c6.51-2.21,10.79-3.66,15.07-5.11
		c2.05,0.38,4.11,0.76,6.16,1.15c1.61,2.83,3.21,5.66,4.81,8.49C537.84,868.2,537.1,868.66,536.37,869.11z"/>
	<path fill="#4F321E" d="M817.9,683.96c6.93,0,13.87,0,21.02,0c0,3.74,0,5.5,0,7.22c-3.15,0.92-6.07,1.77-9.39,2.73
		c-2.73-3.21-6.08-5.86-11.25-3.23c-0.12-2.54-0.22-4.67-0.31-6.8C817.97,683.88,817.9,683.96,817.9,683.96z"/>
	<path fill="#4F321E" d="M276.4,637.89c9.95,1.54,19.89,3.08,29.84,4.63c0,1.62,0,3.25,0,6.22c-10.11-1.81-20.14-3.6-30.71-5.48
		C275.95,640.67,276.18,639.28,276.4,637.89z"/>
	<path fill="#4F321E" d="M759.3,492.9c3.12-0.38,6.24-0.76,9.9-1.21c2.03-1.83,4.39-3.95,6.38-5.74c-1.06-3.73-1.9-6.68-2.75-9.62
		c8.28,2.46,9.2,10.35,1.98,20.45C769.38,497.47,763.16,500.71,759.3,492.9z"/>
	<path fill="#BA8146" d="M303.13,633.12c-3.06-0.31-6.12-0.61-9.64-0.97c0.52-5.85,0.97-10.93,1.46-16.33
		c3.29,0.47,5.74,0.81,8.19,1.16C303.13,622.36,303.13,627.74,303.13,633.12z"/>
	<path fill="#4F321E" d="M587.4,587.87c2.29-1.29,4.57-2.57,7.53-4.23c-0.33-0.61-1.02-1.89-1.71-3.16
		c-0.08-0.75-0.15-1.5-0.23-2.25l0.04-0.04c8.92,16.05,17.57,5.69,26.27-0.27c-1.75,2.72-3.5,5.44-5.25,8.17
		c0,0,0.05-0.01,0.05-0.02c-0.37,0.46-0.74,0.92-1.11,1.38c-1.44,1.58-2.88,3.17-4.32,4.75c-6.21-1.26-12.41-2.52-18.61-3.78
		c0.12-0.22,0.24-0.44,0.34-0.69c-0.25,0.13-0.47,0.28-0.69,0.44C588.94,588.07,588.17,587.97,587.4,587.87z"/>
	<path fill="#4F321E" d="M817.1,856.1c-17.98-2.85-35.98-5.65-53.95-8.6c-3.07-0.51-6.03-1.69-9.04-2.57
		C775.11,848.66,796.11,852.38,817.1,856.1z"/>
	<path fill="#4F321E" d="M754,695.27c10.72-1.59,8.92,7.06,10.54,13.34c0.87-0.52,1.54-0.93,2.23-1.33
		c0.11,0.98,0.21,1.96,0.31,2.95c-3.17,1.8-6.35,3.61-9.28,5.27C756.44,708.24,755.22,701.76,754,695.27z"/>
	<path fill="#BA8146" d="M538.57,867.74c-1.6-2.83-3.21-5.66-4.81-8.49c4.11-1.33,8.23-2.66,12.56-4.06
		c2.12,1.07,4.27,2.15,6.41,3.23C548.01,861.53,543.29,864.63,538.57,867.74z"/>
	<path fill="#D5CEC0" d="M402.38,646.51c-1.48,0.54-2.96,1.08-6.2,2.26c4.38-14.51,8.28-27.42,12.17-40.33
		c0.53,0.12,1.06,0.25,1.59,0.37c-2.32,11.75-4.64,23.5-6.96,35.25C402.78,644.87,402.58,645.69,402.38,646.51z"/>
	<path fill="#6B778D" d="M543.05,623.22c0.87-4.56,1.74-9.13,2.62-13.69c0.84,0.05,1.68,0.1,2.51,0.16c0,3.85,0,7.71,0,11.56
		c0,0,0.02-0.12,0.02-0.12c-1.03,3.42-2.07,6.84-3.1,10.26c-1.61,6.41-3.21,12.82-4.82,19.23c-0.67-0.15-1.33-0.3-2-0.45
		C539.87,641.19,541.46,632.2,543.05,623.22z"/>
	<path fill="#4F321E" d="M303.13,633.12c0-5.38,0-10.76,0-16.14c1.67-0.32,3.34-0.65,2.93-0.57c3.68,2.61,5.85,4.16,8.03,5.71
		c0.33,0.33,0.66,0.66,0.99,1c-1.24,2.67-2.48,5.33-4.23,9.08C308.91,632.44,306.02,632.78,303.13,633.12z"/>
	<path fill="#4F321E" d="M220.3,676.66c0,14.99,0,29.98,0,44.97c-0.48,0.01-0.95,0.01-1.43,0.02c0-14.95,0-29.89,0-44.84
		C219.34,676.76,219.82,676.71,220.3,676.66z"/>
	<path fill="#4F321E" d="M750.17,624.52c0.68,15.25,1.47,30.5,1.98,45.76c0.22,6.63-0.15,13.28-0.25,19.92
		c-1.64-0.56-3.27-1.12-4.91-1.68c1.04-1.56,2.97-3.1,2.99-4.67C750.21,664.07,750.15,644.29,750.17,624.52z"/>
	<path fill="#D5CEC0" d="M774.4,529.98c-11.07-1.77-22.14-3.55-33.2-5.32c0.18-1.5,0.37-3.01,0.56-4.51
		c1.68,0.71,3.29,1.65,5.03,2.09c9.45,2.43,20.27-0.54,28.34,7.29C774.9,529.71,774.66,529.86,774.4,529.98z"/>
	<path fill="#57595F" d="M543.15,580.97c-11.67-1.02-23.35-2.04-35.02-3.06c0.06-0.65,0.12-1.31,0.18-1.96c10.24,0,20.47,0,35.6,0
		c-3.3,1.32-1.66,0.66-0.02,0.01C543.64,577.63,543.4,579.3,543.15,580.97z"/>
	<path fill="#57595F" d="M307.06,642.06c-0.03-1.58-0.05-3.17-0.08-4.75c5.05-2.5,10.1-4.99,16.91-8.37
		c-0.56-0.11,1.35,0.27,3.51,0.7c-0.32,1.33-0.64,2.66-1.21,5.06C320.2,637.01,313.63,639.54,307.06,642.06z"/>
	<path fill="#4F321E" d="M543.15,580.97c0.25-1.67,0.49-3.34,0.74-5.01c0.02-0.42,0.05-0.83,0.07-1.25
		c8.84,5.57,15.11-1.47,22.2-4.51c-0.47,0.95-0.94,1.9-1.42,2.85c-2.27,3.35-4.55,6.7-6.82,10.05
		C553,582.38,548.07,581.68,543.15,580.97z"/>
	<path fill="#4F321E" d="M741.85,549.3c0,39.85,0,79.71,0,119.56c-0.17,0-0.34,0-0.52,0c0-39.85,0-79.71,0-119.56
		C741.5,549.3,741.67,549.3,741.85,549.3z"/>
	<path fill="#4F321E" d="M538.57,867.74c4.72-3.11,9.44-6.21,14.16-9.31c1.12-0.09,2.24-0.17,3.55-0.27
		c0.11,1.83,0.21,3.41,0.35,5.83c-8.97,0.06-11.17,12.97-21.58,10.78c0.96-0.79,1.92-1.57,2.81-2.3c-0.63-1.43-1.06-2.39-1.48-3.35
		C537.1,868.66,537.84,868.2,538.57,867.74z"/>
	<path fill="#4F321E" d="M508.31,575.95c-0.06,0.65-0.12,1.31-0.18,1.96c-6.59-1.21-13.17-2.42-19.76-3.62
		c0.95-1.01,1.9-2.03,3.29-3.52c-0.25-0.44-0.83-1.46-1.41-2.48c-0.07-1.03-0.15-2.06-0.22-3.09c7.26,10.66,15.05,9.21,23.13,1
		C511.54,569.45,509.92,572.7,508.31,575.95z"/>
	<path fill="#6B778D" d="M828.69,725.13l-0.33,0.11c0,0-0.32-0.14-0.32-0.14c-8.38-1.81-16.76-3.62-25.15-5.43
		c0.46-0.77,0.92-1.55,1.37-2.32c8.9,0.88,17.81,1.77,26.84,2.66c0.28,1.72,0.51,3.1,0.76,4.57
		C830.63,724.79,829.66,724.96,828.69,725.13z"/>
	<path fill="#D5CEC0" d="M750.17,624.52c-0.01,19.78,0.04,39.56-0.18,59.33c-0.02,1.57-1.95,3.12-2.99,4.67c0,0-0.4-0.29-0.4-0.29
		c0.89-2.22,2.55-4.45,2.56-6.68c0.17-31.17,0.11-62.34,1.01-93.52C750.17,600.19,750.17,612.35,750.17,624.52z"/>
	<path fill="#BA8146" d="M775.13,529.53c-8.06-7.83-18.89-4.86-28.34-7.29c-1.74-0.45-3.36-1.38-5.03-2.09
		c12.38-2.75,23.78,1.41,35.26,5.01C776.39,526.62,775.76,528.08,775.13,529.53z"/>
	<path fill="#4F321E" d="M405.39,599.96c0-34.23,0-68.46,0-102.69c0.17,0,0.35,0,0.52,0c0,34.23,0,68.46,0,102.69
		C405.73,599.96,405.56,599.96,405.39,599.96z"/>
	<path fill="#4F321E" d="M413.82,579.98c-0.42,2.17-0.83,4.33-1.25,6.5c0,0-0.12,0.12-0.12,0.13c-5.5-4.65-1.14-10.2-1.19-15.26
		c-0.27-24.28-0.12-48.56,1.7-72.85c0,26.89,0,53.79,0,80.68C413.24,579.44,413.53,579.71,413.82,579.98z"/>
	<path fill="#BA8146" d="M167.18,809.47c-11.84,3.69-22.42-2.24-33.5-4.36C145.46,801.81,156.05,807.66,167.18,809.47z"/>
	<path fill="#4F321E" d="M501.51,953.24c0-15.77,0-31.54,0-47.31c0.32,0,0.64,0,0.95-0.01c0,15.77,0,31.54,0,47.32
		C502.15,953.24,501.83,953.24,501.51,953.24z"/>
	<path fill="#57595F" d="M814.04,853.07c-0.66-2.36-1.33-4.73-1.99-7.09c4.09-0.82,8.18-1.65,12.95-2.61
		C824.94,851.13,819.65,852.28,814.04,853.07z"/>
	<path fill="#D5CEC0" d="M828.69,725.13c0.97-0.17,1.93-0.34,3.17-0.55c-0.24-1.48-0.47-2.86-0.76-4.57
		c-9.03-0.9-17.93-1.78-26.84-2.66c10.07,0,20.15,0,31.46,0c-2.22,3.87,2.22,8.05-3.65,9.06
		C830.95,725.98,829.82,725.55,828.69,725.13z"/>
	<path fill="#4F321E" d="M502.49,901.62c12.17,2.72,24.35,5.43,36.52,8.15c-0.11,0.51-0.21,1.02-0.32,1.54
		c-12.13-2.69-24.26-5.37-36.39-8.06C502.37,902.71,502.43,902.17,502.49,901.62z"/>
	<path fill="#4F321E" d="M795.79,545.37c0,19.83,0,39.66,0,59.5c-0.16,0-0.33,0-0.49,0c0-19.83,0-39.66,0-59.5
		C795.46,545.37,795.63,545.37,795.79,545.37z"/>
	<path fill="#D5CEC0" d="M498.06,864.88c-0.61-1.48-1.22-2.97-2.76-6.7c4.56,1.42,7.71,2.41,10.87,3.39
		C504.97,866.35,501.56,865.74,498.06,864.88z"/>
	<path fill="#D5CEC0" d="M802.9,719.66c8.38,1.81,16.77,3.62,25.15,5.43c-8.41-1.31-16.81-2.62-25.22-3.93
		C802.85,720.67,802.87,720.16,802.9,719.66z"/>
	<path fill="#4F321E" d="M821.27,840.1c1.37-1.78,2.75-3.56,5.08-6.57c0.38,4.25,2.82,7.3-2.39,7.4
		C823.06,840.65,822.17,840.38,821.27,840.1z"/>
	<path fill="#FEFEFE" d="M519.16,848.11c-0.6-0.03-1.2-0.06-1.8-0.09c-0.4-3.65-0.8-7.29-1.2-10.94c0.86-0.61,1.72-1.23,2.57-1.84
		C518.88,839.53,519.02,843.82,519.16,848.11z"/>
	<path fill="#57595F" d="M572.02,811.21c-2.02-2.65-4.03-5.3-6.05-7.96c2.38,2.23,4.75,4.46,7.13,6.69
		C572.74,810.36,572.38,810.79,572.02,811.21z"/>
	<path fill="#BA8146" d="M293.87,608.64c3.14,0.79,5.17,1.3,9.63,2.43c-3.97,0.55-5.94,1.04-7.87,0.95
		C295.09,611.99,294.65,610.21,293.87,608.64z"/>
	<path fill="#4F321E" d="M471.61,894.72c3.52,0.82,7.05,1.65,10.57,2.47c-0.09,0.39-0.18,0.79-0.27,1.18
		c-3.58-0.84-7.17-1.67-10.75-2.51C471.31,895.48,471.46,895.1,471.61,894.72z"/>
	<path fill="#FEFEFE" d="M530.11,825.01c2.88-2.76,5.6-3.75,7.85,0.69C535.34,825.46,532.73,825.23,530.11,825.01z"/>
	<path fill="#FEFEFE" d="M287.07,691.02c1.38,0.71,2.75,1.43,4.13,2.14c-2.89,1.01-5.78,2.03-8.67,3.04
		c-0.16-0.38-0.31-0.76-0.47-1.14C283.73,693.71,285.4,692.37,287.07,691.02z"/>
	<path fill="#FEFEFE" d="M856.14,899.92c-0.19,1.25-0.38,2.49-0.61,4c-1.95,0-3.56,0-5.18,0
		C852.28,902.58,854.21,901.25,856.14,899.92z"/>
	<path fill="#4F321E" d="M757.98,488.04c0.44,1.62,0.88,3.24,1.32,4.87C755.61,492.17,754.71,490.68,757.98,488.04z"/>
	<path fill="#4F321E" d="M462.5,892.93c1.85,0.41,3.7,0.82,5.55,1.23c-0.06,0.32-0.11,0.63-0.17,0.95
		c-1.95-0.36-3.91-0.71-5.86-1.07C462.18,893.67,462.34,893.3,462.5,892.93z"/>
	<path fill="#4F321E" d="M424.81,886.26c-1.94-0.44-3.87-0.89-5.81-1.33c0.06-0.31,0.13-0.62,0.19-0.92
		c1.95,0.37,3.89,0.74,5.84,1.11C424.95,885.5,424.88,885.88,424.81,886.26z"/>
	<path fill="#FEFEFE" d="M525.16,827.22c1.35-0.69,2.69-1.39,4.04-2.08C527.86,825.83,526.51,826.52,525.16,827.22z"/>
	<path fill="#D5CEC0" d="M286.02,546.13c2.56,0.98,5.12,1.95,8.66,3.31c-9.66,9.04-0.32,17.2,2.07,26.29
		c-4.28,0.28-7.35,0.48-10.78,0.71c-0.62,1.97-1.19,3.77-1.37,4.34c1.76,3.35,2.93,5.57,4.7,8.93c-7.75-1-13.88-1.8-20.01-2.59
		c-2.19-0.53-4.38-1.07-7.85-1.92c2.02-14.22,4-28.17,6.07-42.73c2.67,0.64,5.17,1.23,7.66,1.82c1.99,0.26,3.98,0.53,5.98,0.79
		c0,0-0.03-0.01-0.03-0.01c1.4,0.34,2.79,0.67,4.19,1.01C285.54,546.01,285.79,546.03,286.02,546.13z"/>
	<path fill="#F7F3E8" d="M269.14,535.72c0.14-0.6,0.27-1.21,0.42-1.84c1.34,0,2.47,0,3.61,0c7.64,1.57,15.29,3.14,22.93,4.72
		c5,0.84,10.01,1.69,15.01,2.53c-1.77,1.44-3.55,2.89-4.78,3.88C294.23,541.99,281.68,538.86,269.14,535.72z"/>
	<path fill="#F7F3E8" d="M801.97,620.11c8.28,0.77,16.55,1.54,24.83,2.3c0.17-0.94,0.34-1.89,0.5-2.83
		c-7.38-1.61-14.75-3.22-22.13-4.82c0.14-0.98,0.28-1.97,0.42-2.95c7.9,1.18,15.81,2.37,23.71,3.55c3.37,1.16,6.73,2.32,10.65,3.67
		c-1.72,0.97-3.06,1.73-4.31,2.44c-0.77,5.37,3.25,1.38,4.57,2.58c0,17.12,0,34.24,0,52.17c-16.57-3.61-32.25-7.03-47.93-10.45
		c3.13,0,6.25,0,9.69,0C801.97,650.15,801.97,635.13,801.97,620.11z"/>
	<path fill="#4F321E" d="M848.1,619.02c-2.27,1.23-4.54,2.47-6.82,3.7c0,0-0.02-0.27-0.02-0.27c0.41-0.71,0.82-1.41,1.23-2.12
		C844.36,619.89,846.23,619.45,848.1,619.02z"/>
	<path fill="#BA8146" d="M296.09,538.6c-7.64-1.57-15.29-3.14-22.93-4.72c7.97-1.02,15.94-2.03,23.91-3.05
		c0.26,1.24,0.53,2.48,1.28,5.94c0.53-3.18,0.67-4.05,0.82-4.93c1.35-0.57,2.7-1.15,4.3-1.83c1.14,0.59,2.41,1.24,4.04,2.08
		c0-1.08,0-1.83,0-3.03c2.21,0.71,4.06,1.29,6.07,1.93c-1.63,3.89-9.23,0.12-7.69,7.59C302.42,538.6,299.26,538.6,296.09,538.6z"/>
	<path fill="#161110" d="M266.13,708.61c-0.66-0.49-1.31-0.98-1.97-1.46c55.25,0.67,109.18,11.87,163.28,21.15
		c58.83,10.09,118.15,18.29,174.93,37.9c3.84,1.32,7.27,3.8,10.9,5.75c-68.64-26.07-141.26-34.27-212.89-46.46
		C355.97,717.9,310.91,714.1,266.13,708.61z"/>
	<path fill="#57595F" d="M565.97,803.24c-42.79-21.42-90.26-25.2-135.86-36.03c-1.46-0.35-2.77-1.35-4.15-2.04
		c46.33,9.4,93.68,14.84,137.24,35.05C564.34,800.76,565.06,802.22,565.97,803.24z"/>
	<path fill="#6B778D" d="M508.31,575.95c1.62-3.25,3.23-6.5,4.85-9.74c0,0-0.02-0.08-0.02-0.08c0.33-0.33,0.66-0.67,1-1c0,0,0,0,0,0
		c0.33-0.66,0.67-1.33,1-1.99c0,0,0,0,0,0c0.35,0.01,0.71,0.02,1.06,0.03c3.08-4.06,6.16-8.13,9.25-12.2
		c-1.12-0.73-2.85-1.88-4.98-3.28c2.16-1.29,4.08-2.43,5.88-3.5c4.58,1.25,3.97,4.46,3.2,7.44c1.93,2.57,3.7,4.92,5.47,7.28
		c0.35,0.75,0.71,1.49,1.06,2.23c0,0-0.02-0.03-0.02-0.03c0.34,0.68,0.68,1.36,1.02,2.04c0,0-0.03-0.03-0.03-0.03
		c0.34,0.34,0.68,0.68,1.03,1.02c0,0-0.02-0.02-0.02-0.02c0.34,0.67,0.67,1.34,1.01,2.01c0,0,0-0.01,0-0.01
		c0.34,0.67,0.67,1.34,1.01,2.01c0,0-0.01-0.01-0.01-0.01c0.34,0.34,0.67,0.67,1.01,1.01c0,0-0.01-0.01-0.01-0.01
		c0.67,1.34,1.34,2.67,2,4.01c0,0,0-0.02,0-0.02c0.34,0.5,0.67,1.01,1.01,1.51c0,0-0.13,0.09-0.13,0.09
		c-0.02,0.41-0.04,0.83-0.07,1.24c-1.64,0.65-3.28,1.31,0.02-0.01C528.78,575.95,518.54,575.95,508.31,575.95z"/>
	<path fill="#6B778D" d="M490.03,565.2c0.07,1.03,0.15,2.06,0.22,3.09c-10.99-0.5-21.98-1.01-34.98-1.61
		c8.16-7.23,9.2-19.46,20.13-20.19c9.15-0.61,6.84,11.32,12.62,15.27c0.35,0.79,0.71,1.58,1.06,2.37c0,0,0,0,0,0
		c0.33,0.34,0.67,0.67,1,1.01L490.03,565.2z"/>
	<path fill="#6B778D" d="M667.64,596.1c0.43-1.04,0.86-2.09,1.29-3.13c4.94-6.49,9.88-12.98,15.89-20.88
		c4.79,8.85,9.79,18.07,15.81,29.18c-10.7-2.74-19.56-5.01-28.52-7.31C670.59,594.7,669.12,595.4,667.64,596.1z"/>
	<path fill="#6B778D" d="M614.05,586.08c1.75-2.72,3.5-5.44,5.25-8.17c3.65-6.06,9.25-8.02,15.98-7.61
		c0.28,0.28,0.56,0.57,0.83,0.85c0,0-0.05-0.04-0.05-0.04c0.34,0.34,0.69,0.69,1.03,1.03c0,0-0.02-0.02-0.02-0.02
		c0.34,0.68,0.68,1.35,1.02,2.03c0,0-0.03-0.02-0.03-0.02c0.67,1,1.35,2,2.02,3.01c0,0,0,0,0,0c0.33,0.33,0.66,0.67,1,1
		c0,0-0.04,0.09-0.04,0.09c1.2,2.95,2.41,5.9,3.61,8.85C634.17,595.31,624.31,584.59,614.05,586.08z"/>
	<path fill="#6B778D" d="M564.74,573.04c0.47-0.95,0.94-1.9,1.42-2.85c0,0-0.02-0.07-0.02-0.07c0.33-0.33,0.66-0.67,1-1l0,0
		c0.33-0.67,0.67-1.34,1-2c0,0,0,0.01,0,0.01c0.67-0.67,1.34-1.34,2.01-2.01c0,0-0.03,0.01-0.03,0.01c0.34-0.34,0.68-0.68,1.03-1.02
		c0,0-0.02,0.03-0.02,0.03c0.34-0.67,0.67-1.35,1.01-2.02c0,0-0.01,0.02-0.01,0.02c0.35,0,0.69,0.01,1.04,0.01
		c1.69-1.83,3.37-3.66,4.78-5.19c2.71,3.22,5.22,6.18,7.72,9.15c0.48,0.68,0.95,1.36,1.42,2.04c0,0-0.04-0.05-0.04-0.05
		c0.35,0.34,0.69,0.69,1.04,1.03c0,0-0.02-0.01-0.02-0.01c0.34,0.34,0.68,0.68,1.01,1.01c0,0-0.02-0.01-0.02-0.01
		c0.67,1.34,1.34,2.67,2,4.01c0,0,0-0.01,0-0.01c0.34,0.67,0.67,1.34,1.01,2.01c0,0-0.01-0.02-0.01-0.02
		c0.04,0.65,0.08,1.3,0.12,1.95C582.64,578.59,573.07,579.19,564.74,573.04z"/>
	<path fill="#D5CEC0" d="M633.16,563.08c-0.51,0.16-1.02,0.32-1.52,0.47c-1.08-0.3-2.16-0.6-8.04-2.23c6.44,0,7.91,0,9.38,0
		c0,0,0.04-0.16,0.04-0.16C633.07,561.8,633.12,562.44,633.16,563.08z"/>
	<path fill="#D5CEC0" d="M432.93,721.62c-47.82-7.28-95.64-14.56-143.46-21.84c0.06-0.44,0.12-0.88,0.19-1.32
		c47.82,7.27,95.65,14.54,143.47,21.81C433.06,720.71,432.99,721.17,432.93,721.62z"/>
	<path fill="#D5CEC0" d="M492.73,909.37c-39.37-8.13-78.74-16.25-118.12-24.38c0.16-0.77,0.32-1.54,0.48-2.31
		c39.3,8.45,78.61,16.89,117.91,25.34C492.92,908.48,492.83,908.92,492.73,909.37z"/>
	<path fill="#4F321E" d="M293.78,902.27c-22.84-4.78-45.68-9.56-68.51-14.33c0.09-0.42,0.18-0.85,0.26-1.27
		c22.82,4.86,45.64,9.72,68.46,14.59C293.92,901.59,293.85,901.93,293.78,902.27z"/>
	<path fill="#F7F3E8" d="M654.2,752.06c2.34-0.64,4.67-1.28,7.01-1.92c0.61,1.19,1.22,2.38,3.22,6.27
		C659.33,754.24,656.76,753.15,654.2,752.06z"/>
	<path fill="#D5CEC0" d="M235.18,907.01c-8.38-8.81-20.61-5.37-30.49-9.5c-3.57-1.49-7.65-1.78-11.13-4.33
		c35.01,7.62,70.01,15.29,105.02,22.86c64.74,14,129.48,27.95,194.22,41.95c0.9,0.2,1.73,0.76,2.59,1.15
		c-0.71,1.25-1.41,2.51-2.15,3.77C407.2,944.3,321.19,925.66,235.18,907.01z"/>
	<path fill="#6B778D" d="M424.21,601.55c3.13-2.52,91.67,10.79,95.41,15.67c-11.16,5.76-22.1,11.41-33.66,17.38
		c-1.47,8.1-11.31,11.54-15.98,9.83C449.27,636.85,419.98,637.08,424.21,601.55z"/>
	<path fill="#161110" d="M795.22,801.41c-8.25-1.53-14.71-2.72-21.06-3.89c0.27-5.53,0.47-9.44,0.74-14.91
		c7.27,1.83,14.16,2.73,20.08,5.62C796.57,789,795.22,795.81,795.22,801.41z M792.87,788.24c-5.41-0.55-10.4-1.07-15.68-1.61
		c0,2.44,0,4.05,0,6.14c4.23,4.32,9.51,5.09,15.68,3.76C792.87,793.8,792.87,791.53,792.87,788.24z"/>
	<path fill="#161110" d="M752.37,801.68c20.69,3.95,41.38,7.9,62.07,11.86c-0.13,0.66-0.26,1.32-0.39,1.99
		c-20.69-4.02-41.38-8.03-62.07-12.05C752.11,802.87,752.24,802.28,752.37,801.68z"/>
	<path fill="#6B778D" d="M581.79,664.71c-14.85-7.68-28.42-15.42-18.36-35.42c2.66-5.29,6.54-8.13,12.14-7
		c31.11,6.28,62.15,12.84,92.78,19.22c-1.69,1.3-4.69,3.62-7,5.4c-2.5,11.32-4.86,22-7.29,32.97c-9.8,1.48-19.07,2.88-24.54,3.7
		C611.45,676.44,596.62,670.57,581.79,664.71z"/>
	<path fill="#4F321E" d="M397.66,624.19c0,0-0.34,0.01-0.34,0.01c0-42.89,0-85.77,0-128.66c0.11,0,0.22,0,0.34,0
		C397.66,538.43,397.66,581.31,397.66,624.19z"/>
	<path fill="#D5CEC0" d="M801.97,620.11c0,15.02,0,30.04,0,45.67c-3.44,0-6.56,0-9.69,0c0.66-10.81,1.07-21.64,2.08-32.41
		c0.44-4.72,2.1-9.33,3.33-14.52C799.26,619.31,800.61,619.71,801.97,620.11z"/>
	<path fill="#161110" d="M785.81,552.45c0,6.69,0,13.39,0,20.08c-0.11,0-0.22,0-0.33,0.01c0-6.69,0-13.39,0-20.08
		C785.58,552.46,785.7,552.46,785.81,552.45z"/>
	<path fill="#D5CEC0" d="M735.15,862.07c29.41-2.07,57.24,7.96,85.94,11.28c3.44,0.4,6.84,1.24,10.6,1.95
		c0.14,1.32,0.28,2.58,0.42,3.83c-23.47-4.1-46.95-8.19-70.42-12.3C752.85,865.28,744,863.66,735.15,862.07z"/>
	<path fill="#D5CEC0" d="M303.84,823.28c1.13,0.31,2.26,0.62,10.1,2.76c-8.13-1.09-9.36-1.25-10.59-1.41
		C303.51,824.17,303.68,823.72,303.84,823.28z"/>
	<path fill="#6B778D" d="M744.89,699.29c-0.61,0.6-1.22,1.21-1.83,1.81C743.67,700.5,744.28,699.9,744.89,699.29z"/>
	<path fill="#6B778D" d="M792.87,788.24c0,3.3,0,5.57,0,8.29c-6.17,1.32-11.45,0.55-15.68-3.76c0-2.09,0-3.69,0-6.14
		C782.47,787.17,787.46,787.68,792.87,788.24z"/>
</g>
</svg>
